<?xml version="1.0" standalone="no"?>
<!DOCTYPE svg PUBLIC "-//W3C//DTD SVG 20010904//EN"
 "http://www.w3.org/TR/2001/REC-SVG-20010904/DTD/svg10.dtd">
<svg version="1.0" xmlns="http://www.w3.org/2000/svg"
 width="1000.000000pt" height="747.000000pt" viewBox="0 0 1000.000000 747.000000"
 preserveAspectRatio="xMidYMid meet">
<metadata>
Created by potrace 1.16, written by Peter Selinger 2001-2019
</metadata>
<g transform="translate(0.000000,747.000000) scale(0.100000,-0.100000)"
fill="#000000" stroke="none">
<path d="M5864 6675 c-4 -9 -2 -21 4 -27 15 -15 44 -1 40 19 -4 23 -36 29 -44
8z"/>
<path d="M5323 6534 c-3 -9 -1 -25 5 -35 7 -11 12 -59 12 -113 l0 -94 -42 11
c-25 6 -138 11 -266 12 l-223 0 1 100 c2 125 3 120 -15 105 -8 -7 -12 -17 -9
-22 6 -10 6 -179 0 -185 -1 -2 -24 -6 -50 -9 l-48 -7 3 111 c2 68 0 111 -6
109 -5 -1 -8 -48 -6 -112 l3 -111 -79 -18 c-211 -48 -448 -155 -628 -282 -60
-42 -159 -126 -220 -186 -60 -59 -111 -108 -113 -108 -2 0 -2 24 0 53 1 29 -1
54 -7 56 -6 2 -9 -21 -7 -61 l4 -65 -73 -98 c-40 -53 -75 -92 -77 -86 -5 16
-58 13 -72 -4 -7 -8 -9 -26 -6 -42 5 -22 -5 -54 -43 -133 -53 -114 -110 -281
-115 -339 -3 -30 -25 -164 -42 -249 -4 -22 -9 -23 -52 -20 -37 2 -47 0 -47
-12 0 -12 11 -14 49 -12 l48 4 -7 -31 c-4 -18 -7 -100 -8 -184 -1 -241 46
-470 146 -708 l44 -106 -20 -27 c-196 -269 -178 -535 51 -778 35 -37 94 -89
129 -114 l65 -47 -4 -93 c-2 -61 0 -93 6 -91 6 2 9 40 7 96 l-3 92 39 -19 c21
-11 57 -25 80 -31 22 -6 44 -18 47 -26 6 -17 42 -20 51 -5 3 6 19 10 36 10
l29 0 0 -116 c0 -81 3 -115 11 -112 8 3 11 38 10 109 l-2 106 113 6 c162 9
347 47 489 102 32 12 48 12 130 -5 52 -11 104 -20 117 -20 19 0 22 -5 22 -38
0 -21 -6 -44 -12 -50 -10 -10 -10 -17 0 -32 15 -24 16 -96 2 -105 -8 -5 -7
-11 1 -21 17 -21 42 1 29 26 -13 25 -13 76 1 102 8 14 8 23 0 31 -6 6 -11 26
-11 43 l0 32 168 -5 c307 -11 561 41 804 163 48 24 90 44 94 44 3 0 4 -44 3
-97 -2 -54 1 -97 6 -95 5 1 8 47 6 102 -2 93 -1 100 17 100 11 0 31 -9 45 -20
14 -11 33 -20 42 -20 15 0 16 7 11 53 -7 50 -6 53 22 70 127 75 356 300 473
466 36 51 46 60 66 55 29 -8 53 11 53 40 0 12 16 52 35 88 20 37 53 120 74
185 l39 118 87 3 c56 2 91 -1 100 -8 17 -15 48 -5 43 12 -3 9 -35 12 -121 9
-64 -1 -117 1 -117 6 0 5 6 33 14 63 52 204 73 467 53 663 -7 73 -7 78 10 73
10 -2 47 -6 83 -8 52 -2 65 0 65 12 0 12 -16 14 -85 11 l-85 -3 -18 97 c-21
115 -84 308 -137 423 l-39 83 39 62 c96 154 137 287 125 416 -6 59 -15 90 -49
156 -55 106 -103 163 -202 238 -45 34 -106 84 -137 110 -31 27 -60 46 -66 43
-5 -3 -26 1 -47 10 -53 22 -255 30 -380 15 -88 -11 -297 -57 -348 -77 -18 -7
-19 -3 -14 80 4 61 3 86 -5 83 -7 -2 -10 -33 -8 -88 l3 -84 -70 -24 c-39 -13
-75 -20 -81 -17 -13 9 -15 196 -2 196 15 0 22 32 10 46 -15 19 -38 18 -46 -2z
m597 -174 c-27 -21 -51 -22 -57 -3 -3 7 9 13 29 16 18 2 38 4 43 5 6 1 -1 -7
-15 -18z m299 -5 c15 -17 15 -17 -1 -11 -44 16 -51 16 -25 1 27 -16 35 -39 17
-50 -10 -6 -78 43 -79 57 -1 3 5 8 12 11 6 2 4 3 -5 2 -10 -2 -21 2 -24 7 -12
19 86 2 105 -17z m-203 -67 c5 -43 8 -78 4 -78 -3 0 -32 27 -64 59 l-59 60 34
20 c59 37 72 27 85 -61z m50 74 c9 -5 8 -24 -4 -71 l-16 -65 -12 55 c-7 29
-13 62 -14 72 0 17 25 23 46 9z m-278 -50 c2 -27 -1 -42 -9 -42 -14 0 -131 52
-126 56 6 7 112 33 122 30 6 -1 11 -21 13 -44z m61 32 l22 -16 -22 -24 c-31
-33 -39 -30 -39 16 0 44 5 47 39 24z m466 -34 c46 -47 72 -55 29 -8 l-29 31
31 -21 c23 -16 31 -29 32 -52 l1 -31 -36 32 c-45 39 -88 89 -76 89 5 0 27 -18
48 -40z m-206 -70 c1 -48 14 -70 41 -70 21 0 85 -79 68 -84 -40 -13 -72 -16
-107 -10 l-38 6 -6 67 c-7 80 22 220 34 166 4 -16 7 -50 8 -75z m71 13 c0 -18
5 -23 27 -23 27 0 83 -44 83 -65 0 -6 -11 -22 -25 -35 l-26 -24 -26 26 c-15
15 -29 43 -32 65 -5 32 -10 38 -34 41 -18 2 -27 9 -27 21 0 10 -3 34 -6 52
l-7 34 37 -34 c21 -21 36 -44 36 -58z m85 67 c3 -6 -1 -7 -9 -4 -18 7 -21 14
-7 14 6 0 13 -4 16 -10z m-655 -54 l0 -44 -42 13 c-72 21 -59 72 20 74 20 1
22 -4 22 -43z m59 33 c39 -14 39 -21 -1 -53 l-33 -26 -6 28 c-16 65 -13 69 40
51z m286 -52 c62 -59 65 -65 59 -97 -12 -65 -10 -66 -132 33 -71 58 -71 59
-55 83 15 23 40 43 55 44 4 0 37 -28 73 -63z m348 22 c32 -22 57 -43 57 -46 0
-12 -33 -43 -45 -43 -20 0 -96 97 -89 114 9 23 14 21 77 -25z m-793 2 c0 -14
-6 -17 -25 -13 -39 7 -30 24 18 31 4 0 7 -7 7 -18z m-550 5 c0 -2 -7 -6 -15
-10 -8 -3 -15 -1 -15 4 0 6 7 10 15 10 8 0 15 -2 15 -4z m-82 -17 c-2 -6 -8
-10 -13 -10 -5 0 -11 4 -13 10 -2 6 4 11 13 11 9 0 15 -5 13 -11z m139 -9
c-33 -13 -56 -16 -70 -10 -17 6 -19 9 -7 13 27 10 54 15 90 15 35 1 35 1 -13
-18z m270 -4 c10 -11 -109 2 -119 12 -4 4 19 5 52 2 32 -3 63 -9 67 -14z m473
7 c21 -12 31 -27 35 -55 4 -22 5 -41 3 -44 -5 -5 -129 44 -141 55 -9 9 47 61
65 61 5 0 23 -8 38 -17z m-967 0 c-7 -2 -21 -2 -30 0 -10 3 -4 5 12 5 17 0 24
-2 18 -5z m1 -23 c37 -1 39 -2 19 -13 -25 -14 -241 -11 -227 3 12 12 71 19
123 14 24 -2 62 -4 85 -4z m131 1 c7 -12 -125 -101 -151 -101 -10 0 -25 4 -33
9 -10 6 5 20 55 49 42 26 71 37 75 31 4 -7 9 -5 12 5 7 17 32 22 42 7z m118
-7 c-3 -8 -12 -13 -20 -10 -8 3 -17 6 -19 6 -3 0 -2 5 1 10 11 17 45 12 38 -6z
m77 1 c11 -13 7 -15 -24 -15 -34 0 -44 8 -29 23 11 12 40 8 53 -8z m90 5 l25
-7 -29 -12 c-34 -14 -56 -8 -56 14 0 16 19 18 60 5z m190 -4 c0 -2 2 -11 5
-19 5 -10 -1 -13 -25 -9 -37 5 -41 32 -5 32 14 0 25 -2 25 -4z m96 -29 c4 -4
-6 -7 -22 -7 -28 0 -54 15 -54 31 0 7 66 -13 76 -24z m974 23 c0 -5 -2 -10 -4
-10 -3 0 -8 5 -11 10 -3 6 -1 10 4 10 6 0 11 -4 11 -10z m-532 -100 c50 -40
53 -54 10 -45 -45 10 -128 55 -128 70 0 7 -3 28 -7 46 l-6 34 44 -36 c24 -19
63 -50 87 -69z m466 74 c6 -24 2 -44 -8 -33 -9 11 -15 59 -7 59 5 0 12 -12 15
-26z m-1857 0 c2 -6 -12 -8 -34 -5 -35 4 -36 5 -13 12 30 8 43 6 47 -7z m459
10 c12 -3 28 -21 37 -39 15 -32 15 -34 -7 -49 -21 -13 -29 -13 -71 0 -27 8
-61 14 -77 14 -40 0 -35 14 20 48 49 32 63 35 98 26z m-261 -29 c-30 -24 -73
-26 -101 -4 -5 4 -20 6 -32 2 -16 -4 -22 -1 -22 11 0 14 14 16 93 16 l92 0
-30 -25z m370 17 l40 -7 -38 -23 c-21 -12 -42 -22 -46 -22 -7 0 -31 43 -31 55
0 7 27 5 75 -3z m485 -18 c34 -12 34 -13 7 -13 -28 -1 -97 23 -97 34 0 6 41
-3 90 -21z m783 -13 c7 -31 -2 -101 -12 -101 -3 1 -17 24 -30 52 l-24 51 24
18 c28 21 35 18 42 -20z m150 8 c20 -17 37 -34 37 -38 0 -4 -17 -5 -37 -2 -29
5 -39 12 -50 39 -17 42 -1 43 50 1z m-1253 11 c0 -5 -8 -10 -17 -10 -15 0 -16
2 -3 10 19 12 20 12 20 0z m40 0 c0 -5 -5 -10 -11 -10 -5 0 -7 5 -4 10 3 6 8
10 11 10 2 0 4 -4 4 -10z m727 -12 c-3 -8 -6 -5 -6 6 -1 11 2 17 5 13 3 -3 4
-12 1 -19z m433 -25 c0 -7 -7 -13 -15 -13 -10 0 -15 10 -15 33 1 30 1 31 15
13 8 -11 15 -26 15 -33z m-1953 26 c35 -6 63 -14 63 -18 0 -15 -35 -38 -65
-44 -16 -4 -60 -15 -97 -26 l-67 -19 -16 24 c-12 19 -13 24 -2 24 8 0 20 12
28 26 23 44 54 51 156 33z m898 1 c4 -6 -6 -10 -24 -10 -16 0 -33 5 -36 10 -4
6 6 10 24 10 16 0 33 -4 36 -10z m75 -4 c0 -9 -8 -12 -25 -8 -14 2 -25 8 -25
13 0 5 11 9 25 9 14 0 25 -6 25 -14z m-155 -6 c3 -5 -1 -10 -10 -10 -9 0 -13
5 -10 10 3 6 8 10 10 10 2 0 7 -4 10 -10z m-672 -29 c-38 -32 -83 -60 -83 -53
0 5 5 22 10 38 9 27 14 29 46 26 20 -3 32 -7 27 -11z m522 -16 c-39 -33 -55
-36 -55 -10 0 17 47 44 75 44 16 0 12 -6 -20 -34z m470 25 c3 -5 1 -10 -5 -10
-6 0 -8 -5 -4 -12 4 -7 3 -8 -5 -4 -6 4 -8 12 -5 18 4 7 2 8 -4 4 -7 -4 -20
-2 -29 3 -15 9 -13 10 14 11 17 0 35 -4 38 -10z m384 -52 c1 -10 -6 -18 -14
-18 -16 0 -22 60 -8 74 8 8 20 -24 22 -56z m291 -13 c0 -6 -21 -9 -50 -7 -27
2 -50 7 -50 10 0 3 14 21 32 39 l32 33 18 -32 c9 -18 17 -37 18 -43z m-1065
56 c8 -14 -35 -41 -65 -41 l-25 0 30 25 c32 26 50 31 60 16z m123 -17 c12 -8
22 -24 22 -37 0 -35 -11 -67 -22 -61 -5 3 -6 15 -3 25 8 24 -11 49 -36 49 -16
0 -39 26 -39 45 0 8 52 -6 78 -21z m32 16 c0 -5 -4 -10 -9 -10 -6 0 -13 5 -16
10 -3 6 1 10 9 10 9 0 16 -4 16 -10z m112 -22 c13 -18 31 -45 41 -60 17 -27
17 -28 -9 -34 -36 -9 -53 3 -86 62 -34 61 -34 64 1 64 21 0 35 -9 53 -32z
m127 -19 c59 -31 69 -39 47 -39 -15 0 -34 7 -42 15 -22 21 -43 19 -53 -6 -7
-20 -10 -19 -44 23 -20 25 -37 48 -37 52 0 12 55 -7 129 -45z m-917 23 c9 -9
-162 -157 -182 -158 -9 -1 -25 -6 -36 -12 -22 -12 -64 -6 -64 9 0 18 54 43 91
42 46 -2 67 22 42 49 -13 15 -10 20 39 52 51 35 86 41 110 18z m183 -6 c81
-18 47 -33 -38 -16 -90 17 -95 19 -77 30 8 5 24 7 35 5 11 -3 47 -11 80 -19z
m821 -1 c9 -8 23 -15 32 -15 9 0 25 -7 36 -15 17 -13 16 -14 -13 -13 -16 1
-28 5 -25 10 3 4 -4 8 -15 8 -10 0 -21 3 -23 8 -1 4 -19 15 -38 25 l-35 18 33
-6 c18 -2 40 -12 48 -20z m-1459 -3 c-20 -22 -22 -38 -4 -45 16 -7 -11 -27
-37 -27 -13 0 -16 5 -12 16 9 23 49 73 60 73 5 1 2 -7 -7 -17z m1033 -24 c0
-15 -19 -8 -29 11 -14 25 0 37 16 15 7 -10 13 -21 13 -26z m1164 20 c16 -27
-8 -47 -35 -30 -19 12 -20 11 -15 -6 4 -13 1 -19 -9 -19 -11 0 -14 6 -9 16 4
9 9 26 12 39 5 27 39 27 56 0z m37 -1 c-13 -13 -26 -3 -16 12 3 6 11 8 17 5 6
-4 6 -10 -1 -17z m105 -66 c7 -20 10 -38 8 -40 -5 -5 -114 70 -114 79 0 4 10
6 23 6 16 -1 23 5 25 22 l3 23 21 -27 c12 -14 27 -42 34 -63z m-2056 51 c0
-43 -19 -61 -58 -55 l-34 6 38 38 c45 46 54 48 54 11z m547 -6 c-8 -19 -37
-21 -37 -3 0 7 5 18 12 25 15 15 33 -1 25 -22z m573 24 c0 -5 -7 -7 -15 -4 -8
4 -15 8 -15 10 0 2 7 4 15 4 8 0 15 -4 15 -10z m-1485 -26 c-36 -24 -34 -26
10 -8 18 7 19 -7 3 -28 -13 -16 -175 -74 -184 -65 -7 7 68 53 99 61 15 3 25
11 22 16 -3 5 11 18 32 29 54 29 65 25 18 -5z m281 -13 c-20 -21 -36 -29 -55
-26 -14 1 -32 3 -40 4 -22 2 -4 14 47 33 70 25 80 22 48 -11z m351 3 c24 -14
41 -29 38 -34 -3 -5 -47 -38 -98 -74 -51 -35 -99 -71 -106 -80 -10 -12 -31
-16 -79 -16 l-66 0 28 29 c19 20 44 32 83 40 30 6 59 8 64 5 5 -3 14 -2 20 2
26 16 -17 21 -68 7 -30 -8 -57 -12 -59 -10 -7 7 170 156 185 157 8 0 34 -12
58 -26z m619 -1 c-7 -7 -26 7 -26 19 0 6 6 6 15 -2 9 -7 13 -15 11 -17z m-537
2 c2 -3 0 -9 -5 -14 -5 -5 -22 0 -39 11 l-30 20 34 -6 c19 -3 37 -8 40 -11z
m374 -14 c9 -16 27 -31 39 -35 22 -5 54 -43 45 -52 -2 -2 -26 2 -53 10 -27 8
-61 17 -76 20 -18 4 -28 13 -28 25 0 27 -28 47 -48 34 -18 -11 -42 -7 -42 7 0
5 24 11 53 13 28 2 61 4 72 5 13 1 27 -8 38 -27z m-966 3 c-3 -3 -12 -4 -19
-1 -8 3 -5 6 6 6 11 1 17 -2 13 -5z m695 -16 c-7 -7 -12 -8 -12 -2 0 14 12 26
19 19 2 -3 -1 -11 -7 -17z m478 -30 c0 -9 -73 -11 -82 -3 -3 3 -3 17 0 30 l4
25 39 -22 c22 -12 39 -25 39 -30z m1018 27 c13 -28 6 -31 -22 -10 -10 7 -15
18 -11 24 10 17 21 13 33 -14z m-605 -15 c29 -16 47 -30 41 -30 -21 0 -119 32
-139 46 -41 29 44 15 98 -16z m-1563 11 c0 -11 -143 -141 -149 -135 -5 4 65
108 87 131 15 15 62 18 62 4z m643 3 c11 -11 -3 -24 -18 -18 -8 4 -12 10 -9
15 6 11 18 12 27 3z m775 -19 c25 -55 11 -69 -80 -79 -12 -2 -69 77 -61 85 9
8 48 15 99 18 24 1 33 -5 42 -24z m-1352 9 c20 -5 20 -6 -5 -33 -15 -16 -60
-42 -101 -59 l-75 -31 68 64 c68 66 75 69 113 59z m672 -6 c19 -19 14 -27 -18
-26 -22 1 -30 6 -30 20 0 21 29 25 48 6z m37 2 c3 -5 2 -10 -4 -10 -5 0 -13 5
-16 10 -3 6 -2 10 4 10 5 0 13 -4 16 -10z m740 -20 l80 -29 -46 0 c-30 -1 -51
4 -59 14 -7 9 -19 14 -25 11 -13 -5 -35 12 -35 26 0 10 -8 12 85 -22z m471 17
c9 -9 -12 -54 -61 -131 l-36 -57 -51 43 c-27 24 -81 66 -119 94 -38 28 -72 54
-76 58 -5 5 69 6 164 4 94 -1 175 -6 179 -11z m-2090 -24 c-8 -16 -26 -41 -40
-58 l-26 -30 22 50 c11 28 26 53 32 57 22 15 26 8 12 -19z m784 20 c0 -5 -11
-13 -25 -20 -29 -13 -33 -6 -7 13 19 15 32 18 32 7z m1406 -29 c-3 -7 -1 -14
3 -16 4 -2 11 -16 15 -33 l7 -30 -21 33 c-11 18 -18 37 -15 42 3 4 -2 11 -11
14 -8 3 -12 11 -9 16 9 15 37 -9 31 -26z m150 15 c19 -11 34 -22 34 -24 0 -9
-60 18 -71 31 -16 20 -2 17 37 -7z m-2077 7 c-2 -2 -14 -9 -26 -15 -19 -10
-23 -9 -23 4 0 10 9 15 27 15 14 0 24 -2 22 -4z m1132 -48 c8 -15 6 -15 -31
-1 -39 16 -52 37 -27 46 13 5 44 -18 58 -45z m1039 -2 c0 -5 -7 -3 -15 4 -8 7
-15 22 -15 34 1 20 2 20 15 -4 8 -14 14 -29 15 -34z m-2480 39 c0 -2 -7 -22
-15 -42 -16 -40 -61 -77 -106 -88 -22 -5 -27 -3 -32 17 -3 13 -8 33 -12 45 -6
20 0 24 72 47 82 26 93 29 93 21z m960 -21 c20 -20 22 -27 11 -34 -16 -9 -101
-24 -107 -18 -10 10 10 45 34 60 36 22 35 22 62 -8z m145 -10 l40 -13 -70 2
c-59 2 -70 5 -73 20 -3 17 0 18 29 12 19 -4 52 -13 74 -21z m160 4 c-20 -16
-32 -19 -43 -11 -33 20 -24 33 24 33 l47 0 -28 -22z m1075 7 c18 -9 39 -37 59
-76 l30 -60 -25 -57 c-29 -66 -30 -67 -37 -48 -4 9 -2 18 3 21 17 11 11 44
-10 55 -13 7 -20 22 -21 43 l-2 32 -6 -35 -6 -35 -28 59 c-15 32 -31 72 -34
87 -5 26 -3 29 21 29 15 0 40 -7 56 -15z m-1630 -15 c0 -4 -9 -15 -20 -25 -11
-10 -20 -15 -20 -11 0 3 -27 -22 -59 -56 l-60 -63 -20 20 -21 21 84 60 c76 55
116 73 116 54z m100 -44 c-9 -11 -9 -16 -1 -16 6 0 14 7 17 15 4 8 11 12 17 8
13 -8 -20 -33 -44 -33 -10 0 -19 5 -21 12 -3 7 -43 -21 -94 -64 -49 -42 -90
-75 -92 -73 -2 2 15 33 38 69 41 65 85 106 113 106 8 0 20 7 27 16 12 13 15
13 33 -5 17 -17 18 -22 7 -35z m503 25 c13 -11 20 -11 32 -1 9 8 28 10 50 6
51 -10 53 -26 3 -27 -24 0 -65 -4 -93 -9 -60 -10 -68 -5 -35 20 28 22 21 26
-13 9 -19 -9 -18 -7 3 10 13 11 27 17 30 13 3 -4 13 -13 23 -21z m896 -46 c7
-41 13 -78 14 -82 1 -5 -10 -9 -25 -11 -23 -3 -28 2 -37 35 -6 21 -11 46 -11
56 0 20 30 77 40 77 3 0 12 -34 19 -75z m231 19 c0 -19 -2 -34 -4 -34 -4 0
-56 78 -56 84 0 3 14 0 30 -5 25 -9 30 -16 30 -45z m-637 32 c18 -7 41 -24 53
-37 22 -25 38 -59 27 -59 -6 0 -194 99 -202 106 -12 11 94 2 122 -10z m-2019
-14 c-44 -29 -163 -126 -159 -130 3 -3 22 8 43 25 20 16 59 47 87 67 l49 38
18 -22 c36 -44 26 -55 -89 -92 -105 -33 -138 -33 -111 0 23 28 161 133 166
127 4 -3 2 -9 -4 -13z m462 2 c30 -8 54 -17 54 -19 0 -1 -23 -17 -50 -35 -40
-26 -62 -33 -108 -34 -46 -2 -57 -5 -56 -18 1 -13 -3 -15 -22 -7 -13 5 -36 14
-51 19 -24 10 -25 12 -10 27 12 12 116 58 185 82 2 0 28 -6 58 -15z m103 -1
c-58 -76 -142 -173 -150 -173 -4 0 -29 10 -53 22 -45 21 -45 22 -23 37 13 9
43 15 74 15 30 0 53 5 54 11 0 5 18 25 41 43 22 17 37 32 32 32 -7 0 26 29 35
30 2 0 -3 -8 -10 -17z m800 -19 c-30 -32 -61 -35 -92 -8 -27 23 -27 23 -4 27
12 2 43 4 70 4 l47 0 -21 -23z m451 18 c0 -4 -4 -12 -9 -17 -5 -6 -11 -17 -13
-25 -2 -14 -9 -13 -42 6 l-40 22 35 10 c43 13 69 14 69 4z m106 -28 c30 -20
54 -39 54 -44 0 -12 -61 -18 -105 -11 -29 5 -35 9 -22 13 22 9 22 36 0 60 -29
32 12 22 73 -18z m543 -30 c25 -65 26 -74 7 -74 -10 0 -19 20 -26 57 -7 32
-15 64 -18 72 -3 9 -1 12 6 7 6 -3 20 -31 31 -62z m-1220 32 l22 -23 -25 -5
c-31 -6 -36 -2 -36 29 0 29 11 29 39 -1z m185 15 c3 -5 -8 -14 -26 -20 -43
-15 -47 -13 -19 9 26 22 37 25 45 11z m1280 -7 c5 -14 4 -15 -9 -4 -17 14 -19
20 -6 20 5 0 12 -7 15 -16z m-1514 -24 c0 -37 -19 -39 -63 -8 l-32 23 30 6
c59 13 65 11 65 -21z m450 5 c-7 -9 -37 -30 -67 -48 -29 -17 -53 -35 -53 -40
0 -4 -5 -5 -10 -2 -13 8 -42 76 -35 83 4 5 101 18 154 21 20 1 22 -1 11 -14z
m107 -15 l52 -30 -14 -47 c-34 -115 -53 -158 -67 -157 -8 1 -44 25 -81 55 -49
40 -62 56 -51 62 17 9 19 54 3 59 -10 3 88 88 101 88 3 0 28 -14 57 -30z m319
-41 c10 -18 -35 -1 -79 29 -60 40 -55 46 11 13 33 -17 64 -36 68 -42z m-961
41 c3 -5 -1 -10 -9 -10 -8 0 -18 5 -21 10 -3 6 1 10 9 10 8 0 18 -4 21 -10z
m366 -41 c11 -22 40 -106 65 -187 25 -81 50 -158 55 -171 19 -47 2 -29 -41 45
-24 41 -79 120 -123 175 l-78 102 42 43 c23 24 46 41 51 38 4 -3 17 -23 29
-45z m-386 26 c61 -13 58 -17 -30 -51 -67 -25 -91 -30 -97 -21 -13 20 -9 38
15 63 22 25 33 26 112 9z m290 -15 c-16 -16 -33 -30 -39 -30 -5 0 3 14 19 30
16 17 33 30 39 30 5 0 -3 -13 -19 -30z m960 -46 c-3 -24 -9 -44 -12 -44 -2 0
-13 10 -23 22 -17 22 -17 23 6 51 13 16 25 34 25 40 1 7 3 4 6 -7 3 -10 2 -38
-2 -62z m170 36 c23 -33 25 -43 15 -55 -15 -18 -6 -45 14 -45 8 0 21 -9 29
-21 13 -18 12 -28 -7 -92 -12 -40 -26 -72 -31 -72 -13 0 -64 162 -65 204 0 30
2 33 25 27 25 -6 32 2 16 20 -9 9 -32 74 -27 74 2 0 16 -18 31 -40z m185 5 c0
-5 -5 -3 -10 5 -5 8 -10 20 -10 25 0 6 5 3 10 -5 5 -8 10 -19 10 -25z m23 -18
c4 -31 3 -46 -3 -42 -6 3 -10 27 -10 52 0 57 5 53 13 -10z m-2575 28 c-10 -10
-68 -24 -68 -16 0 5 15 13 33 18 31 9 46 8 35 -2z m1142 6 c0 -8 -52 -31 -71
-31 -22 0 -5 20 24 29 43 12 47 13 47 2z m-468 -46 c-17 -29 -34 -45 -47 -45
-15 0 -11 9 25 45 24 25 45 45 47 45 1 0 -10 -20 -25 -45z m1394 -32 c-7 -8
-55 45 -56 61 0 6 14 -5 31 -22 18 -18 29 -36 25 -39z m-2078 -42 c-29 -50
-75 -131 -103 -180 -27 -50 -51 -89 -53 -87 -2 2 13 72 34 154 29 121 41 154
58 166 24 15 109 46 114 41 2 -2 -21 -44 -50 -94z m454 47 c-31 -29 -63 -61
-72 -71 -14 -17 -16 -16 -46 5 l-32 22 41 48 c40 48 40 48 103 48 l63 0 -57
-52z m354 17 c9 -30 9 -35 -5 -35 -9 0 -38 -14 -66 -30 -96 -57 -102 -27 -10
49 33 28 62 50 65 50 3 1 10 -15 16 -34z m985 13 c3 -5 9 -3 12 6 8 19 55 21
92 4 l26 -12 -47 -17 c-26 -10 -52 -15 -58 -11 -6 3 -15 7 -21 7 -14 0 -75 34
-75 41 0 9 64 -8 71 -18z m-1911 -10 c-19 -11 -53 -30 -75 -40 -22 -11 -76
-41 -120 -67 -44 -27 -82 -47 -84 -45 -2 2 9 24 23 49 21 35 32 45 46 40 11
-4 22 0 27 10 9 15 162 73 198 74 15 1 11 -5 -15 -21z m224 16 c13 -5 14 -9 5
-21 -9 -10 -9 -17 -1 -25 12 -12 32 -2 32 17 0 10 15 7 60 -13 32 -15 61 -32
64 -38 2 -6 -16 -35 -40 -65 -25 -30 -79 -106 -121 -169 -42 -63 -83 -120 -91
-127 -10 -9 -25 -8 -65 4 -114 34 -114 29 8 89 87 43 113 61 122 84 7 16 51
61 98 100 48 40 84 74 81 77 -2 3 -47 -31 -100 -76 -52 -45 -98 -81 -101 -81
-7 0 -6 215 1 234 6 17 22 20 48 10z m939 -1 c4 -3 -37 -26 -90 -50 -74 -34
-98 -41 -104 -31 -11 18 -4 23 76 57 70 29 106 37 118 24z m126 -6 l31 -13
-25 -24 -25 -23 -26 24 c-23 22 -24 24 -8 36 21 16 15 16 53 0z m665 -70 c62
-41 117 -80 121 -87 5 -8 -13 -31 -51 -66 -33 -29 -62 -53 -66 -54 -4 0 -38
64 -75 141 -37 78 -69 137 -70 132 -2 -5 23 -65 56 -134 33 -68 58 -126 55
-128 -5 -5 -166 38 -184 49 -10 6 -6 31 21 111 18 57 38 107 44 111 14 11 22
7 149 -75z m397 40 c-8 -8 -11 -3 -11 19 1 25 2 27 11 11 8 -14 8 -22 0 -30z
m334 -16 c10 -32 13 -56 7 -71 -7 -20 -11 -14 -25 43 -10 36 -17 71 -17 77 0
24 19 -3 35 -49z m-558 -69 l-36 -36 -57 45 c-32 24 -56 49 -55 54 2 6 27 20
55 31 l51 21 39 -39 39 -39 -36 -37z m539 -33 c4 -37 2 -64 -6 -79 -12 -22
-14 -20 -41 41 -29 67 -29 82 -1 149 l15 35 13 -45 c7 -25 16 -70 20 -101z
m-2660 122 c-4 -5 -2 -11 2 -13 14 -5 -61 -295 -80 -314 -16 -16 -21 -14 -90
25 -127 73 -123 62 -45 138 55 54 71 64 91 59 33 -8 56 2 56 24 0 10 15 30 33
44 33 27 27 37 -7 11 -11 -8 -25 -15 -30 -15 -6 0 7 12 29 25 44 27 49 29 41
16z m676 -51 c-56 -54 -82 -71 -82 -54 0 3 16 26 36 52 27 36 41 46 59 44 13
-2 26 2 30 7 3 6 9 11 13 11 3 0 -22 -27 -56 -60z m538 30 l35 -29 -90 -91
c-49 -49 -95 -90 -101 -90 -11 0 -74 126 -74 147 0 9 163 91 185 92 6 0 26
-13 45 -29z m955 0 c12 -19 -12 -10 -31 11 -19 22 -19 22 3 10 12 -6 25 -16
28 -21z m-1556 -35 c-28 -39 -34 -43 -43 -28 -7 13 -1 24 29 50 21 18 40 31
43 29 2 -3 -11 -25 -29 -51z m769 -17 c89 -110 222 -321 210 -334 -3 -2 -22
20 -44 49 -21 28 -69 87 -106 130 -56 65 -67 83 -62 104 6 22 4 24 -19 21 -18
-2 -35 6 -56 26 l-31 30 22 23 c12 13 23 23 24 23 2 0 29 -33 62 -72z m1048
22 c8 -38 7 -50 -2 -54 -11 -4 -19 10 -51 92 -3 7 4 12 19 12 21 0 25 -7 34
-50z m-2286 -160 c-7 -4 -10 -17 -8 -29 2 -19 -9 -29 -74 -63 -106 -54 -119
-43 -19 16 45 27 80 50 77 53 -3 3 -32 -12 -66 -32 -34 -20 -63 -36 -65 -34
-2 2 14 33 34 69 21 36 57 100 82 144 l44 79 3 -98 c2 -65 -1 -101 -8 -105z
m2240 140 c20 -53 40 -78 40 -50 0 17 20 11 27 -7 3 -10 16 -44 28 -75 13 -32
20 -58 16 -58 -3 1 -28 32 -56 71 -27 38 -65 84 -82 101 -18 18 -33 36 -33 41
0 7 27 34 36 37 1 0 12 -27 24 -60z m-776 -27 c92 -76 94 -88 47 -210 l-38
-96 -33 114 c-18 63 -44 145 -57 183 -12 38 -23 73 -23 78 0 14 30 -6 104 -69z
m-857 50 c7 -21 -32 -55 -60 -51 l-28 3 31 33 c29 32 50 38 57 15z m1591 -101
c26 -40 6 -34 -47 14 -57 51 -76 79 -65 96 7 11 78 -58 112 -110z m-1394 92
c4 -9 5 -17 4 -18 -42 -21 -83 -36 -99 -36 -11 0 -22 -7 -25 -15 -7 -17 -72
-60 -80 -52 -3 3 13 18 35 33 22 16 41 33 41 37 0 5 -14 -2 -31 -14 -21 -15
-30 -17 -27 -8 6 18 126 87 154 88 12 1 25 -6 28 -15z m-1211 -7 c-35 -55 -67
-97 -75 -97 -12 0 -3 14 40 68 33 40 52 56 35 29z m727 -37 c0 -3 -29 -36 -63
-73 -55 -61 -65 -68 -94 -65 l-33 3 65 88 65 88 30 -18 c17 -9 30 -20 30 -23z
m936 -114 c63 -72 112 -131 111 -133 -2 -1 -20 3 -41 9 -24 8 -41 20 -47 35
-8 22 -44 32 -51 14 -2 -5 -27 -5 -61 1 -48 8 -57 13 -52 28 6 19 -19 45 -35
35 -5 -3 -10 -15 -10 -27 0 -19 -4 -20 -57 -13 -31 4 -63 9 -70 12 -10 4 14
34 78 99 77 78 95 91 108 81 8 -7 65 -70 127 -141z m-1567 107 c-19 -15 -55
-48 -81 -71 -26 -24 -51 -41 -57 -38 -12 8 -3 41 17 59 22 19 146 86 151 81 2
-2 -12 -16 -30 -31z m2385 10 c3 -10 2 -41 -2 -69 l-7 -52 -39 34 -40 34 34
35 c38 40 46 42 54 18z m-1666 -5 c-3 -7 -13 -15 -24 -17 -16 -3 -17 -1 -5 13
16 19 34 21 29 4z m448 -57 c31 -67 31 -70 14 -86 -16 -14 -41 -16 -174 -13
-86 1 -156 5 -155 8 0 3 30 24 66 48 47 31 69 40 76 33 15 -15 47 -14 48 2 1
6 2 18 3 25 1 13 61 51 81 52 6 0 24 -31 41 -69z m-372 27 c-4 -7 -9 -22 -10
-35 -1 -12 -7 -30 -12 -39 -9 -16 -11 -15 -21 4 -9 16 -8 24 7 38 9 10 16 19
15 21 -8 10 -1 23 13 23 9 0 12 -5 8 -12z m116 -3 c0 -8 -7 -15 -16 -15 -14 0
-14 3 -4 15 7 8 14 15 16 15 2 0 4 -7 4 -15z m1554 -58 c44 -65 46 -70 34 -98
-17 -39 -25 -37 -38 14 -6 23 -20 69 -30 101 -11 32 -18 57 -16 55 2 -2 25
-35 50 -72z m309 16 c13 -32 23 -61 20 -65 -2 -5 -26 -8 -52 -8 l-48 0 21 65
c11 36 23 65 27 65 3 0 18 -26 32 -57z m-2093 39 c0 -12 -39 -46 -45 -41 -6 7
24 49 36 49 5 0 9 -4 9 -8z m179 -8 c5 -4 -61 -84 -70 -84 -4 0 -3 15 3 33 5
17 12 40 15 50 4 13 11 16 27 11 11 -4 23 -8 25 -10z m1649 -69 c-2 -14 -9 -9
-30 23 -37 55 -35 64 3 26 18 -18 29 -39 27 -49z m-1780 27 c11 -22 17 -44 14
-49 -4 -6 -27 -14 -52 -18 l-45 -7 40 35 c22 20 35 36 28 37 -6 0 -14 -4 -18
-10 -3 -5 -19 -19 -36 -31 l-31 -22 7 24 c7 24 53 79 66 79 4 0 16 -17 27 -38z
m1706 -45 c5 -22 4 -28 -6 -25 -24 8 -42 52 -34 84 l8 29 12 -30 c7 -16 16
-43 20 -58z m-1538 61 c7 -11 -38 -55 -81 -80 -19 -11 -19 -10 -2 13 10 13 25
36 35 51 18 29 36 36 48 16z m-1056 -9 c0 -21 -23 -104 -33 -116 -6 -9 -6 -13
2 -13 6 0 11 -18 11 -44 0 -34 -6 -52 -25 -73 l-26 -28 7 50 c3 28 8 58 11 68
2 10 6 42 7 70 3 53 19 97 36 97 6 0 10 -5 10 -11z m2495 -21 c36 -27 44 -39
45 -65 0 -18 -3 -33 -6 -33 -16 0 -112 103 -107 116 8 21 19 18 68 -18z
m-2553 -9 c-5 -13 -20 -64 -32 -114 -30 -121 -30 -121 -65 -85 l-30 31 24 41
c27 47 105 156 109 153 1 -1 -2 -13 -6 -26z m835 -21 c-13 -32 -72 -77 -84
-64 -7 7 76 96 89 96 4 0 2 -15 -5 -32z m1988 -38 c26 -38 45 -74 43 -81 -2
-7 -15 5 -27 27 -82 137 -90 165 -16 54z m-582 28 l79 -21 -26 -25 c-20 -21
-28 -23 -40 -13 -11 9 -16 9 -21 0 -4 -6 -2 -15 4 -19 9 -5 -5 -22 -41 -52
-70 -58 -135 -108 -141 -108 -3 0 -8 11 -11 25 -4 14 -11 25 -16 25 -6 0 -10
6 -10 13 0 12 63 177 75 198 8 12 31 9 148 -23z m202 2 c-9 -16 -22 -30 -30
-30 -21 0 -19 8 13 35 35 31 36 31 17 -5z m-2372 -10 c-7 -28 -13 -25 -13 6 0
14 4 23 9 20 5 -3 7 -15 4 -26z m2407 0 c0 -20 -5 -30 -15 -30 -18 0 -19 14
-5 41 15 27 20 24 20 -11z m55 -38 c-28 -6 -45 7 -45 35 l0 27 31 -30 c24 -23
27 -30 14 -32z m286 -27 c22 -38 37 -75 34 -82 -6 -17 -25 -8 -25 12 0 8 -6
18 -12 22 -16 10 -58 98 -58 120 0 24 14 8 61 -72z m-2604 -1 c33 -19 64 -41
67 -49 3 -8 3 -15 1 -15 -2 0 -46 -15 -97 -34 -93 -33 -94 -33 -117 -15 -22
18 -23 22 -13 76 6 32 15 71 21 86 l11 29 33 -21 c17 -12 60 -37 94 -57z m455
1 c-32 -44 -57 -67 -77 -73 -16 -5 -31 -8 -33 -7 -2 2 18 35 43 74 42 65 49
71 80 71 l34 0 -47 -65z m1975 43 c29 -27 29 -37 1 -32 l-23 5 23 -10 c21 -10
32 -41 14 -41 -22 0 -45 30 -48 63 -4 43 1 45 33 15z m-1698 -3 c-8 -9 -37
-25 -65 -36 l-49 -20 43 6 c24 3 55 13 70 22 l27 16 -21 -22 c-15 -16 -37 -24
-77 -28 -34 -3 -57 -2 -57 4 0 23 30 46 76 58 65 18 71 18 53 0z m2051 8 c0
-1 -19 -14 -42 -28 -39 -24 -31 -29 15 -10 16 7 15 3 -4 -29 l-22 -37 -16 28
c-22 36 -32 63 -27 71 4 6 96 11 96 5z m-3009 -79 c-6 -32 -11 -74 -11 -95 0
-29 -4 -38 -21 -42 -13 -4 -18 -1 -15 6 2 7 15 56 27 110 25 104 38 118 20 21z
m1419 64 c16 -10 24 -10 41 0 13 9 36 11 67 7 112 -15 229 -36 247 -44 11 -5
49 -19 85 -31 64 -22 110 -58 110 -86 0 -8 -5 -14 -11 -14 -21 0 -204 52 -215
61 -6 5 -14 6 -17 3 -3 -3 -41 1 -84 9 -43 9 -130 23 -193 32 -63 9 -119 21
-124 26 -12 11 -29 12 -22 1 2 -4 -55 -7 -127 -6 -132 2 -146 6 -133 39 4 12
36 15 181 15 122 0 181 -4 195 -12z m1371 -40 c6 -12 6 -18 0 -18 -10 0 -41
51 -41 67 1 9 26 -22 41 -49z m-367 34 c5 -8 -20 -72 -29 -72 -16 0 -45 22
-45 35 0 26 61 57 74 37z m-1603 -20 c-14 -26 -38 -45 -51 -40 -7 2 -1 15 14
31 29 31 52 37 37 9z m1669 -2 c6 -11 10 -43 8 -69 l-3 -49 -42 24 -42 25 17
45 c18 48 44 58 62 24z m-1460 -11 c0 -5 -7 -9 -15 -9 -15 0 -20 12 -9 23 8 8
24 -1 24 -14z m1550 -5 c17 -43 12 -63 -20 -79 -46 -24 -50 -20 -50 45 l0 60
30 0 c24 0 33 -6 40 -26z m-1830 -3 c-11 -21 -29 -36 -35 -29 -3 2 2 14 11 26
19 28 39 30 24 3z m1875 -5 c26 -24 26 -25 7 -35 -18 -9 -22 -7 -31 21 -17 48
-14 49 24 14z m94 -38 c-1 -31 -1 -31 -8 -8 -5 14 -6 28 -4 33 9 15 13 6 12
-25z m47 -33 c10 -69 5 -79 -20 -43 -20 28 -22 108 -3 108 8 0 16 -24 23 -65z
m-1672 -5 c51 -67 55 -80 27 -97 -11 -7 -51 -40 -90 -73 -67 -57 -91 -71 -91
-51 0 9 23 137 41 229 10 48 13 52 39 52 23 0 37 -11 74 -60z m299 7 c31 -26
57 -57 59 -70 2 -12 11 -23 23 -25 31 -6 165 -142 162 -166 -1 -13 7 -25 24
-33 62 -30 58 -34 -103 -137 l-153 -97 -191 5 c-105 3 -199 9 -209 12 -10 4
-25 2 -34 -3 -10 -6 -57 -20 -107 -32 -119 -29 -134 -32 -134 -27 0 9 127 84
152 90 15 3 30 15 33 26 4 13 56 44 158 94 210 103 197 102 242 22 20 -36 42
-66 48 -66 14 0 134 227 125 235 -10 11 -278 19 -278 8 0 -5 11 -24 25 -43 31
-42 31 -47 3 -55 -13 -4 -94 -41 -181 -83 -137 -66 -160 -74 -172 -61 -25 25
-115 232 -107 246 16 27 173 203 183 203 13 0 12 -17 -17 -173 -14 -78 -30
-145 -36 -148 -6 -4 -8 -15 -4 -25 6 -16 10 -14 35 14 16 17 31 35 33 39 1 4
39 39 82 76 53 46 85 67 97 64 22 -6 43 17 35 38 -3 8 -16 19 -30 25 -13 5
-39 30 -56 56 l-33 46 135 -4 136 -4 55 -47z m977 35 l23 -19 -35 -66 c-34
-63 -37 -82 -10 -55 9 9 12 2 12 -35 0 -26 -4 -47 -10 -47 -9 0 -141 50 -149
56 -2 2 17 35 42 74 26 38 47 73 47 76 0 15 -33 -23 -66 -77 -19 -33 -38 -59
-42 -59 -18 1 -52 13 -52 20 0 10 160 133 160 123 0 -4 4 -1 10 7 17 27 18 5
4 -70 -14 -72 -13 -100 3 -100 4 0 8 21 8 48 1 63 14 142 25 142 4 0 18 -8 30
-18z m452 -24 c29 -35 29 -35 12 -76 -19 -49 -31 -53 -39 -14 -4 15 -10 46
-16 69 -17 76 -6 82 43 21z m-1982 -3 c-38 -39 -68 -48 -50 -15 10 19 55 49
74 50 6 0 -5 -16 -24 -35z m39 -13 c-26 -27 -47 -43 -51 -37 -9 12 60 85 80
85 9 0 -4 -20 -29 -48z m671 22 c138 -21 381 -83 412 -105 15 -10 32 -19 38
-19 31 0 -5 -30 -179 -149 -101 -69 -126 -72 -126 -17 -1 27 -22 49 -37 40 -9
-6 -146 136 -164 170 -6 11 -16 20 -22 19 -11 -3 -92 65 -92 77 0 7 43 3 170
-16z m1156 -19 c7 -22 14 -64 14 -93 l0 -54 -37 23 c-56 33 -61 40 -68 89 -6
42 -4 46 22 62 40 23 53 18 69 -27z m-2923 -52 c-26 -48 -64 -130 -84 -182
-44 -112 -52 -107 -11 6 44 121 113 263 128 263 8 0 -5 -33 -33 -87z m3137 43
c0 -6 -7 -2 -15 8 -8 11 -15 25 -15 30 0 6 7 2 15 -8 8 -11 15 -25 15 -30z
m-2185 24 c-3 -5 -11 -10 -16 -10 -6 0 -7 5 -4 10 3 6 11 10 16 10 6 0 7 -4 4
-10z m38 -21 c-23 -38 -39 -53 -52 -44 -15 9 30 75 52 75 17 0 17 -1 0 -31z
m-842 -41 c12 -23 -7 -69 -38 -92 l-26 -19 7 34 c16 75 19 109 7 109 -6 0 -11
-16 -11 -38 0 -62 -16 -100 -81 -185 -55 -74 -61 -78 -54 -47 4 19 15 49 23
65 9 17 17 37 18 45 1 20 65 132 71 126 5 -5 -14 -42 -52 -99 -30 -46 -8 -29
25 19 18 25 33 60 35 77 1 18 6 40 10 50 7 17 9 17 32 -5 14 -13 29 -30 34
-40z m494 46 l48 -17 -79 -28 c-43 -16 -80 -29 -81 -29 -10 -1 13 68 25 78 20
16 29 15 87 -4z m2018 -6 l31 -22 -49 -23 c-27 -12 -51 -21 -53 -19 -4 5 29
86 35 86 3 0 19 -10 36 -22z m-2139 -25 c-6 -37 -34 -81 -34 -55 0 15 31 92
37 92 2 0 1 -17 -3 -37z m2296 -8 l0 -35 -35 17 c-19 9 -35 19 -35 22 0 9 54
38 63 34 4 -2 7 -20 7 -38z m310 3 c0 -14 -18 -9 -24 8 -11 28 -6 39 9 20 8
-11 15 -23 15 -28z m-2660 28 c0 -8 -253 -166 -266 -166 -2 0 -4 14 -4 31 0
24 4 30 16 25 8 -3 13 -2 10 3 -4 5 12 7 34 4 38 -5 41 -4 52 25 10 26 23 35
78 55 69 26 80 29 80 23z m19 -45 c-11 -39 -19 -45 -108 -93 -53 -28 -108 -60
-123 -70 -27 -18 -27 -18 -39 3 -13 25 -17 21 89 81 40 22 99 59 130 83 31 23
58 41 60 40 2 -2 -2 -22 -9 -44z m316 7 c-98 -160 -191 -411 -236 -633 l-24
-116 -50 -31 c-27 -17 -60 -37 -72 -45 l-22 -15 19 69 c44 159 127 377 196
515 90 182 148 277 174 287 41 15 42 13 15 -31z m104 15 c11 -25 10 -29 -10
-46 -26 -21 -36 -9 -20 22 19 35 12 43 -15 14 l-26 -28 18 33 c22 39 37 41 53
5z m-209 -55 c-17 -29 -48 -87 -69 -128 -34 -66 -47 -81 -108 -122 -38 -26
-97 -72 -131 -103 -34 -31 -62 -54 -62 -51 0 4 11 28 24 54 13 26 27 58 31 72
17 58 90 236 100 242 21 15 27 7 21 -29 -3 -21 -8 -59 -12 -84 -5 -41 -8 -45
-28 -42 -15 3 -25 -1 -30 -12 -8 -22 1 -35 25 -35 10 0 19 -5 19 -11 0 -5 4
-8 9 -5 4 3 14 55 21 116 7 60 18 114 24 119 11 9 173 69 189 70 4 1 -6 -23
-23 -51z m2400 27 c0 -16 -46 -73 -53 -65 -8 9 34 91 44 85 5 -4 9 -12 9 -20z
m-2075 -12 c8 4 15 3 15 -1 -1 -8 -61 -75 -63 -70 -2 1 -7 17 -13 35 -10 26
-9 34 5 47 15 15 17 15 28 0 7 -9 19 -14 28 -11z m1675 22 c0 -7 -92 -109
-102 -113 -4 -2 -8 14 -8 35 0 37 3 40 48 60 50 22 62 26 62 18z m134 -78 c15
-72 -7 -93 -37 -34 -8 17 -28 52 -43 76 l-27 44 51 -29 c38 -21 52 -35 56 -57z
m173 19 c18 -27 22 -41 14 -49 -8 -8 -11 -7 -11 4 -1 21 -30 -20 -30 -43 0
-10 -4 -18 -9 -18 -5 0 -9 21 -9 48 -1 26 -4 65 -8 87 -6 37 -5 39 11 25 10
-8 29 -32 42 -54z m-235 -37 c15 -26 24 -50 20 -52 -4 -3 -32 -10 -63 -16 -46
-10 -61 -9 -93 4 -42 18 -45 10 34 103 51 61 43 64 102 -39z m423 8 c7 -28 12
-53 11 -55 -6 -5 -46 102 -46 122 1 19 1 19 11 3 6 -9 16 -41 24 -70z m-2340
44 c-3 -6 -16 -16 -28 -22 -21 -11 -21 -10 2 15 23 25 40 29 26 7z m85 -17 c9
-21 7 -29 -7 -40 -10 -7 -21 -14 -25 -14 -3 0 -13 -3 -22 -6 -27 -10 -21 50 7
69 31 22 36 21 47 -9z m2279 -157 l21 -49 -47 40 c-27 22 -63 56 -82 75 l-33
35 33 41 32 41 27 -67 c15 -38 37 -90 49 -116z m-3035 119 c-4 -26 -11 -36
-23 -34 -12 2 -15 -4 -14 -27 2 -22 -6 -38 -29 -62 -17 -18 -29 -35 -26 -38 3
-3 17 8 32 25 20 25 26 27 25 13 0 -10 -13 -28 -29 -41 l-29 -22 -6 21 c-4 11
-4 47 0 80 6 50 12 63 38 84 19 15 34 20 38 14 3 -6 9 0 12 12 10 36 19 15 11
-25z m2715 -22 c-43 -14 -49 -11 -49 32 l0 34 41 -27 41 -27 -33 -12z m-559
44 c0 -7 -3 -29 -6 -50 l-6 -36 -42 12 c-22 6 -41 17 -41 24 0 14 64 62 82 62
7 0 13 -6 13 -12z m50 -4 c0 -3 -41 -74 -44 -74 0 0 0 20 2 44 3 37 7 43 23
39 10 -3 19 -7 19 -9z m-1553 -12 c-10 -10 -17 -28 -17 -39 0 -18 -56 -113
-67 -113 -5 0 2 39 18 100 5 21 19 42 36 52 37 23 50 23 30 0z m-391 -29 c-8
-17 -33 -78 -56 -137 -49 -130 -80 -192 -112 -227 -43 -46 -53 -36 -77 80 -12
58 -24 116 -26 128 -4 17 4 28 37 51 58 40 241 142 246 138 2 -2 -3 -17 -12
-33z m2022 10 l37 -17 -60 -6 c-33 -4 -61 -5 -63 -4 -2 1 1 12 8 23 13 25 29
26 78 4z m477 -44 c6 -27 2 -36 -28 -67 l-36 -36 -11 28 c-5 15 -10 40 -10 56
0 25 5 31 33 39 17 5 35 10 39 10 3 1 10 -13 13 -30z m-2055 16 c0 -4 -7 -20
-16 -37 -14 -28 -17 -29 -26 -14 -7 13 -5 23 8 37 16 18 34 25 34 14z m756 -1
c21 -6 21 -8 -20 -85 -38 -73 -56 -95 -56 -68 0 7 -20 45 -44 85 l-44 74 71 0
c40 0 82 -3 93 -6z m1420 -26 c-3 -17 -14 -40 -23 -50 -14 -16 -15 -23 -5 -38
7 -11 12 -29 12 -41 0 -12 11 -34 25 -51 22 -26 25 -39 25 -111 0 -45 -3 -105
-6 -134 l-7 -52 -58 52 c-43 38 -59 58 -59 77 0 14 -5 31 -10 36 -8 8 -8 25
-1 56 6 24 17 84 26 133 13 76 20 94 47 122 18 18 34 33 36 33 3 0 2 -14 -2
-32z m-3001 -85 c-3 -13 -11 -23 -18 -23 -22 0 -37 -22 -27 -40 7 -13 1 -25
-25 -50 l-34 -33 -6 35 c-8 44 12 94 68 168 l42 55 3 -44 c2 -25 1 -55 -3 -68z
m766 80 c-8 -15 -10 -15 -11 -2 0 17 10 32 18 25 2 -3 -1 -13 -7 -23z m109 21
c0 -3 -12 -22 -27 -42 -15 -20 -28 -39 -29 -41 -2 -1 -7 0 -13 4 -16 9 30 85
52 85 9 0 17 -3 17 -6z m131 -223 c-5 -9 -6 -21 -4 -27 2 -7 -13 -22 -34 -35
-21 -12 -100 -67 -175 -121 -171 -122 -185 -122 -122 5 58 116 144 260 161
270 7 4 13 17 13 28 0 22 32 75 58 96 13 11 22 -3 63 -94 33 -72 46 -111 40
-122z m1177 195 c18 -30 19 -39 9 -65 -10 -28 -16 -31 -53 -31 l-43 0 25 62
c13 34 24 63 24 65 0 2 4 3 9 3 5 0 18 -16 29 -34z m324 -1 c-2 -16 -5 -31 -7
-33 -4 -4 -173 28 -199 38 -23 9 -26 7 49 24 11 2 52 3 90 3 l70 -2 -3 -30z
m-403 -37 l-21 -55 -61 -7 c-33 -3 -62 -5 -64 -3 -3 4 161 126 165 122 1 -1
-7 -27 -19 -57z m134 45 c10 -3 16 -11 13 -19 -3 -7 0 -15 7 -18 7 -2 2 -5
-10 -5 -13 -1 -30 11 -44 31 -21 29 -21 31 -3 24 10 -5 27 -11 37 -13z m541 2
c3 -8 1 -15 -3 -15 -5 0 -11 7 -15 15 -3 8 -1 15 3 15 5 0 11 -7 15 -15z m326
-55 c64 -58 80 -79 89 -115 15 -59 14 -63 -9 -70 -27 -8 -134 71 -126 92 3 8
-5 25 -18 38 -15 15 -22 32 -19 43 2 11 0 22 -5 26 -9 5 -5 56 5 56 3 0 40
-32 83 -70z m-505 36 c22 -8 60 -24 85 -35 l45 -21 -40 6 c-22 3 -54 14 -71
25 -38 23 -52 24 -76 2 -23 -21 -31 -13 -22 22 7 28 6 28 79 1z m158 0 c13
-20 14 -26 3 -35 -10 -8 -27 -5 -67 12 l-53 24 30 11 c47 17 71 14 87 -12z
m430 -21 c8 -22 22 -57 31 -77 9 -21 14 -38 12 -38 -11 0 -66 113 -66 137 0
33 4 29 23 -22z m-3063 16 c0 -6 -4 -13 -10 -16 -5 -3 -10 1 -10 9 0 9 5 16
10 16 6 0 10 -4 10 -9z m2275 -18 c44 -9 85 -17 91 -19 8 -1 8 -20 0 -67 -6
-36 -13 -68 -16 -71 -9 -8 -141 34 -167 53 -17 12 -22 23 -19 41 3 14 1 32 -3
39 -14 21 -1 53 18 46 9 -4 52 -14 96 -22z m-1632 3 c3 -8 -12 -40 -34 -71
-21 -30 -48 -72 -60 -93 -11 -20 -18 -29 -15 -20 3 9 8 34 12 55 8 46 29 90
57 121 24 26 33 27 40 8z m-99 -33 c-6 -25 -24 -56 -24 -41 0 10 22 68 26 68
2 0 1 -12 -2 -27z m2226 -100 c-12 -59 -25 -111 -28 -114 -4 -4 -19 -9 -33
-13 -20 -4 -35 2 -65 28 l-39 34 50 51 c36 38 57 51 78 51 16 0 26 4 22 10 -4
6 -11 8 -16 5 -5 -4 -9 -3 -9 0 0 9 54 63 59 59 2 -1 -7 -51 -19 -111z m-2096
91 c4 -10 -9 -41 -32 -78 -21 -33 -64 -110 -96 -169 -32 -60 -60 -106 -63
-104 -2 3 3 32 12 66 12 41 25 65 42 76 17 12 22 22 18 36 -4 13 10 46 46 104
28 47 55 85 59 85 4 0 11 -7 14 -16z m1756 -54 c15 -79 10 -91 -34 -83 -28 6
-28 7 -22 57 16 121 36 130 56 26z m240 60 c0 -5 -7 -7 -15 -4 -8 4 -15 8 -15
10 0 2 7 4 15 4 8 0 15 -4 15 -10z m-180 -10 c24 -15 7 -18 -25 -4 -23 10 -25
13 -10 13 11 1 27 -3 35 -9z m82 -4 l27 -6 -16 -48 c-9 -26 -18 -54 -21 -62
-8 -28 -49 86 -43 122 1 4 7 6 14 4 6 -3 24 -7 39 -10z m-2577 -142 c14 -71
25 -134 25 -140 0 -10 -79 -49 -85 -42 -1 2 -9 62 -18 133 l-17 130 32 27 c18
14 34 25 36 24 1 -2 13 -61 27 -132z m375 97 c-30 -61 -134 -344 -166 -453
-15 -54 -31 -98 -34 -98 -13 0 -38 80 -33 101 4 14 0 26 -10 34 -22 16 -69
147 -57 159 6 6 10 18 10 27 0 21 117 131 223 211 43 32 81 58 83 58 2 0 -5
-18 -16 -39z m2138 14 c2 -2 -6 -18 -18 -35 -25 -35 -35 -31 -45 19 l-7 34 33
-7 c18 -3 34 -8 37 -11z m162 5 c0 -5 -3 -10 -7 -10 -5 0 -22 -14 -40 -30 -18
-17 -34 -30 -37 -30 -2 0 3 18 11 40 14 34 21 40 45 40 15 0 28 -4 28 -10z
m-743 -65 c-18 -45 -28 -57 -55 -66 -18 -6 -35 -9 -36 -7 -2 1 -16 27 -30 56
-31 62 -27 65 106 70 l36 2 -21 -55z m141 43 c-5 -14 -138 -91 -138 -80 0 3 7
26 16 49 l17 43 54 0 c39 0 54 -4 51 -12z m-1544 -63 c-3 -19 -11 -38 -17 -42
-6 -4 -8 2 -3 18 18 69 13 65 -15 -9 -18 -45 -33 -81 -35 -79 -3 3 28 104 52
167 10 28 25 -17 18 -55z m1659 9 c17 -25 51 -80 73 -122 l42 -77 -30 -12
c-28 -12 -179 -19 -189 -8 -4 3 24 252 30 263 0 1 10 2 21 2 13 0 33 -17 53
-46z m-390 -13 c15 -27 27 -53 27 -58 0 -10 -117 -49 -124 -42 -2 2 -6 26 -7
53 -3 46 -1 50 31 72 19 13 37 24 40 24 3 0 17 -22 33 -49z m1312 19 c19 -38
20 -60 1 -40 -14 15 -31 70 -21 70 2 0 11 -13 20 -30z m-1077 -32 c-19 -24
-56 -73 -82 -110 -26 -38 -54 -68 -62 -68 -18 0 -18 3 9 79 21 61 25 66 92
106 39 24 72 42 74 40 2 -2 -12 -23 -31 -47z m46 -58 c-7 -58 -13 -111 -14
-117 0 -14 -91 -17 -123 -4 -16 6 -13 14 29 71 75 104 118 160 119 157 1 -1
-4 -49 -11 -107z m430 83 c-2 -26 -1 -26 11 -10 13 18 14 17 20 -2 10 -32 -3
-42 -43 -35 -20 4 -39 8 -41 10 -4 4 42 63 50 63 3 1 5 -11 3 -26z m-157 -28
c5 -3 -19 -120 -27 -134 -5 -10 -15 0 -36 35 -15 27 -40 68 -56 91 -15 23 -28
44 -28 46 0 4 137 -32 147 -38z m639 -3 l51 -47 -23 -55 c-19 -45 -24 -51 -30
-35 -4 11 -22 56 -40 99 -19 44 -34 81 -34 83 0 14 33 -6 76 -45z m-3236 -6
c0 -19 -7 -39 -16 -47 -8 -7 -24 -29 -34 -48 -23 -43 -25 -24 -6 39 31 99 56
125 56 56z m160 -95 c6 -51 8 -97 3 -101 -4 -4 -18 -11 -30 -15 -22 -6 -23 -3
-23 42 0 26 5 86 12 133 13 97 19 88 38 -59z m-50 98 c0 -10 -5 -64 -11 -119
l-12 -101 -18 50 c-9 27 -20 54 -23 59 -3 6 1 13 10 16 22 8 14 51 -9 50 -23
-2 -22 3 8 42 27 35 55 37 55 3z m2536 -5 c20 -5 20 -8 -14 -60 -20 -29 -37
-52 -38 -51 -5 5 19 117 24 117 4 0 16 -3 28 -6z m-746 -22 c0 -27 -10 -33
-32 -21 -15 8 -17 13 -7 25 16 20 39 17 39 -4z m829 2 l31 -7 -77 -58 c-43
-31 -79 -56 -81 -54 -4 4 44 83 66 108 17 19 18 19 61 11z m-603 -66 c-23 -63
-24 -63 -61 -61 -41 3 -102 34 -96 49 3 7 150 70 173 73 4 1 -3 -27 -16 -61z
m762 30 c23 -18 42 -40 42 -50 0 -9 5 -28 11 -42 11 -23 6 -34 -55 -123 -91
-135 -119 -165 -141 -157 -14 6 -16 3 -11 -12 4 -15 -7 -32 -44 -69 -27 -27
-53 -46 -56 -42 -4 4 12 33 34 66 23 32 54 77 69 100 16 25 34 41 46 41 14 0
18 5 14 20 -3 12 1 24 11 29 14 8 15 14 6 28 -12 19 -3 101 18 176 6 20 8 40
5 43 -12 12 -35 -16 -30 -35 5 -19 -14 -161 -22 -169 -3 -3 -38 12 -80 32
l-75 37 98 79 c53 43 102 79 108 80 6 0 29 -14 52 -32z m335 -100 c50 -134 90
-258 85 -263 -2 -2 -26 27 -55 65 -30 41 -46 71 -39 73 8 3 7 8 -2 18 -11 11
-14 12 -21 1 -7 -11 -10 -10 -15 3 -6 17 -9 225 -2 225 2 0 24 -55 49 -122z
m-3212 17 c-6 -49 -15 -93 -21 -99 -14 -14 -13 -32 4 -49 19 -19 36 -82 25
-98 -13 -21 -24 -2 -22 39 l2 37 -13 -40 -13 -40 -11 35 c-6 19 -18 66 -25
103 -13 63 -12 71 6 105 24 46 68 105 73 99 3 -2 0 -44 -5 -92z m736 73 c-3
-13 -11 -49 -18 -80 -13 -57 -29 -78 -29 -38 0 34 33 140 43 140 5 0 7 -10 4
-22z m1068 -18 c-9 -18 -19 -30 -21 -27 -3 2 3 18 13 35 23 40 29 33 8 -8z
m1583 -25 l1 -20 -9 20 c-5 11 -8 31 -8 45 l0 25 8 -25 c4 -14 8 -34 8 -45z
m-1523 35 c21 -23 22 -22 -31 -42 l-42 -15 21 38 c24 45 27 46 52 19z m1486
-81 c4 -24 8 -87 8 -139 l-1 -95 -14 80 c-8 44 -19 93 -23 110 -15 51 -13 -5
3 -82 8 -38 17 -104 20 -148 l6 -80 -19 55 c-10 30 -35 108 -56 174 l-36 118
22 55 22 55 30 -30 c18 -18 32 -46 38 -73z m-1580 54 c-17 -35 -28 -41 -112
-71 -52 -18 -89 -28 -83 -22 15 15 197 128 207 129 4 1 -1 -16 -12 -36z m1598
-29 c7 -37 10 -69 7 -71 -5 -5 -8 5 -20 67 -2 14 -8 35 -11 48 -4 13 -3 22 3
22 5 0 15 -30 21 -66z m-2144 37 c-6 -4 -59 -28 -120 -51 -60 -24 -153 -60
-205 -81 -86 -34 -92 -36 -65 -13 70 57 138 99 142 87 6 -18 43 -16 43 2 0 8
12 17 28 21 15 3 56 14 92 24 75 21 98 24 85 11z m420 0 c-13 -12 -534 -331
-540 -331 -12 0 139 287 163 311 l27 27 180 1 c103 1 175 -3 170 -8z m-405
-17 c0 -4 -37 -80 -81 -170 l-82 -163 -137 -89 -137 -89 -27 127 c-31 153 -31
145 -6 170 11 11 20 26 20 33 0 7 24 21 53 31 89 32 331 127 357 142 28 15 40
17 40 8z m698 -194 c12 -102 22 -204 22 -228 l0 -42 -25 16 c-14 9 -22 20 -19
25 3 5 -2 9 -11 9 -9 0 -58 41 -110 91 -84 81 -93 94 -84 112 6 11 21 50 33
86 21 63 24 67 76 93 30 15 58 24 61 20 4 -4 14 -86 24 -182 9 -96 21 -184 26
-195 10 -22 5 38 -17 235 -16 146 -17 167 -6 155 5 -6 19 -93 30 -195z m70
127 l61 -62 -30 -95 c-31 -99 -48 -140 -59 -140 -3 0 -14 69 -24 153 -10 83
-20 164 -23 180 -3 15 -1 27 4 27 5 0 36 -28 71 -63z m-1963 7 c16 -43 16 -46
-1 -60 -18 -14 -18 -15 4 -9 19 6 25 0 43 -42 40 -96 75 -171 151 -325 43 -87
75 -158 72 -158 -14 0 -148 117 -213 186 -69 74 -99 120 -86 132 19 19 43 7
72 -36 17 -26 35 -55 38 -64 9 -22 28 -23 45 -2 11 12 10 18 -3 31 -12 12 -19
13 -29 5 -10 -8 -19 1 -40 38 -16 29 -23 52 -18 55 17 11 11 44 -10 55 -11 6
-25 8 -30 5 -15 -9 -32 66 -18 82 8 10 8 17 0 25 -14 14 -16 128 -3 128 4 0
16 -21 26 -46z m638 14 c-5 -27 -23 -40 -23 -17 0 13 20 52 25 47 2 -1 1 -15
-2 -30z m1393 -17 c6 -3 8 -16 5 -29 -6 -23 -7 -22 -41 13 l-35 36 30 -7 c17
-4 35 -9 41 -13z m-1839 -38 c-13 -21 -27 -47 -32 -58 -7 -18 -9 -16 -17 14
-5 18 -7 39 -5 45 5 13 69 48 75 41 2 -2 -7 -20 -21 -42z m1501 39 c10 -7 7
-24 -13 -77 -15 -38 -29 -73 -32 -78 -5 -9 -83 61 -83 75 0 13 20 9 37 -7 21
-22 38 -13 38 18 1 17 10 34 24 43 18 13 20 18 10 25 -8 5 -9 9 -4 9 6 0 16
-4 23 -8z m1342 -47 c33 -34 35 -40 39 -118 1 -45 1 -80 -2 -77 -7 7 -107 234
-107 243 0 13 33 -9 70 -48z m-2790 42 c0 -1 11 -33 25 -70 13 -37 22 -74 19
-81 -3 -7 2 -21 11 -29 9 -9 26 -45 39 -81 l24 -64 -24 -104 c-13 -56 -24
-113 -24 -125 0 -13 -3 -23 -8 -23 -4 0 -42 67 -84 148 -71 138 -76 152 -73
203 1 29 5 61 8 69 3 8 8 28 12 44 8 36 53 116 66 116 5 0 9 -1 9 -3z m1400
-4 c0 -5 -21 -20 -48 -35 -38 -21 -51 -24 -67 -15 -17 9 -12 13 45 33 36 12
66 23 68 23 1 1 2 -2 2 -6z m430 -2 c0 -5 -7 -14 -15 -21 -16 -14 -18 -10 -9
14 6 17 24 22 24 7z m419 5 c-26 -25 -134 -106 -142 -106 -14 0 -87 70 -87 83
0 6 35 6 85 2 69 -5 88 -4 107 9 20 14 49 23 37 12z m514 -141 c30 -71 57
-138 60 -147 11 -30 -14 -128 -34 -139 -21 -11 -25 -34 -9 -44 15 -9 41 15 39
34 -4 24 11 81 21 81 5 0 12 -10 16 -22 5 -16 -6 -45 -37 -105 -24 -45 -47
-83 -51 -83 -12 0 -9 35 3 47 16 16 2 33 -28 33 -23 0 -25 -3 -21 -31 4 -24
-4 -44 -34 -89 -63 -95 -69 -91 -109 60 l-19 76 31 90 c17 49 33 96 36 104 8
22 45 -91 38 -118 -4 -15 0 -24 10 -28 9 -4 23 -18 31 -33 9 -14 12 -17 9 -6
-4 11 -10 29 -12 40 -3 11 -19 56 -35 101 l-30 81 21 90 c11 50 21 102 21 115
0 28 10 42 21 31 4 -5 32 -66 62 -138z m-774 126 c23 -6 21 -9 -40 -64 -35
-31 -68 -57 -73 -57 -5 0 -23 17 -41 37 l-33 38 22 27 c19 24 27 27 81 26 33
0 71 -3 84 -7z m451 -60 c14 -10 26 -27 28 -38 3 -19 -144 -252 -159 -253 -3
0 -21 60 -39 133 -18 72 -35 137 -37 143 -2 6 15 25 38 42 l41 31 52 -20 c28
-11 62 -28 76 -38z m-2558 9 c3 -18 -1 -35 -9 -41 -17 -15 -17 -44 2 -59 8 -7
15 -28 15 -49 -1 -35 -2 -34 -34 34 -50 107 -52 121 -19 139 34 17 39 15 45
-24z m524 -15 c-5 -25 -15 -39 -37 -51 l-30 -15 7 38 c7 42 14 56 14 30 0 -9
7 -17 15 -17 9 0 15 6 14 13 -3 15 12 49 18 43 3 -3 2 -21 -1 -41z m882 9 c2
-1 -6 -7 -17 -14 -19 -10 -21 -8 -21 16 0 24 2 25 18 13 9 -7 19 -14 20 -15z
m767 -6 c19 -17 35 -34 35 -38 0 -4 -19 -20 -42 -36 -24 -16 -46 -33 -50 -39
-15 -21 -15 4 0 73 9 39 18 72 20 72 1 0 18 -14 37 -32z m580 -69 c-28 -109
-87 -290 -94 -284 -3 4 -16 43 -28 87 l-22 81 45 54 c24 30 59 79 76 109 40
66 47 49 23 -47z m481 56 c9 -63 -18 -235 -37 -235 -11 0 -12 67 0 74 4 3 6
39 3 80 -5 78 2 126 18 126 5 0 12 -20 16 -45z m-3473 -90 c4 -9 2 -24 -4 -31
-9 -11 -8 -18 1 -29 9 -10 9 -22 2 -42 -6 -16 -11 -21 -11 -11 -1 9 -5 19 -10
22 -4 3 -6 -6 -3 -19 5 -28 -12 -34 -22 -8 -7 16 -1 113 11 203 l6 45 12 -56
c6 -30 15 -64 18 -74z m1597 106 c0 -18 -39 -56 -47 -47 -5 5 31 66 40 66 4 0
7 -9 7 -19z m739 -57 c-10 -42 -21 -79 -24 -82 -3 -3 -20 9 -38 27 l-32 32 55
50 c30 27 56 49 56 49 1 0 -7 -34 -17 -76z m-789 50 c0 -18 -25 -46 -53 -60
-18 -9 -63 -39 -100 -67 -37 -27 -70 -47 -73 -44 -15 14 26 54 114 112 94 62
112 71 112 59z m615 -119 c-33 -30 -63 -54 -67 -55 -4 0 7 41 24 91 l31 91 36
-36 36 -37 -60 -54z m1185 -62 c42 -69 51 -112 35 -160 l-13 -38 -11 28 c-14
36 -14 57 0 57 6 0 9 12 7 28 -2 21 -8 27 -28 27 -22 0 -25 -5 -26 -35 -1 -42
-25 -150 -33 -150 -10 0 -49 151 -55 208 -4 41 -2 52 9 52 8 0 15 7 15 16 0
11 -6 15 -19 11 -15 -4 -20 2 -25 32 -3 20 -6 52 -5 71 l0 35 59 -65 c32 -35
73 -88 90 -117z m-1635 127 l39 -40 -18 -52 c-11 -29 -23 -61 -28 -70 -9 -18
-53 -24 -74 -10 -6 4 -14 51 -17 104 -6 86 -4 97 11 101 37 10 49 5 87 -33z
m879 -12 c8 -29 24 -88 36 -132 l21 -78 -25 -23 c-44 -40 -230 -135 -254 -128
-17 4 -22 1 -22 -13 -1 -14 -21 -28 -69 -51 l-69 -31 86 172 c78 153 89 171
110 167 17 -2 22 1 22 18 0 11 -5 21 -11 21 -6 0 -9 4 -7 10 3 11 149 119 160
120 4 0 14 -24 22 -52z m-1849 -36 c-20 -26 -49 -65 -65 -86 -36 -46 -37 -37
-8 39 15 40 32 63 56 80 51 35 58 20 17 -33z m855 14 c0 -24 3 -64 6 -91 l7
-47 -59 7 c-32 4 -60 9 -62 10 -10 9 35 123 55 143 38 35 53 29 53 -22z m-108
-56 c-13 -38 -24 -55 -35 -54 -10 0 -35 1 -57 2 -29 2 -40 6 -40 18 0 10 6 13
19 9 11 -3 24 1 32 12 13 16 12 17 -4 4 -9 -8 -20 -11 -23 -9 -6 6 82 72 106
80 22 7 22 -2 2 -62z m-661 -83 c30 -144 30 -145 -28 -178 -27 -16 -31 -15
-103 20 -89 43 -96 60 -52 123 50 72 143 180 150 174 3 -4 18 -66 33 -139z
m1434 113 c16 -16 26 -33 22 -36 -3 -3 -36 -12 -74 -20 -37 -7 -79 -16 -93
-20 -14 -4 -23 -5 -20 -2 16 17 126 108 131 108 3 0 18 -13 34 -30z m-1598 -4
c-3 -7 -15 -44 -26 -81 -12 -37 -34 -82 -50 -100 -16 -18 -53 -69 -82 -114
-29 -44 -55 -79 -56 -77 -5 5 46 235 56 254 5 9 12 25 15 35 5 16 121 97 140
97 4 0 6 -6 3 -14z m1253 -132 c15 -16 19 -25 10 -22 -9 3 -58 11 -110 18 -52
7 -97 14 -99 16 -2 2 7 32 20 68 l23 64 66 -58 c36 -32 76 -70 90 -86z m1565
-13 l-7 -65 -18 24 c-17 23 -17 26 1 78 11 30 20 67 21 81 1 15 3 9 6 -14 2
-22 1 -69 -3 -104z m-1181 -52 c-56 -111 -103 -190 -120 -204 -18 -14 -25 -27
-21 -38 7 -18 37 -23 53 -8 17 17 234 102 245 96 17 -11 -146 -111 -294 -179
l-98 -46 -31 70 c-17 39 -34 70 -37 70 -8 0 -155 -230 -150 -234 6 -5 202 -26
245 -26 l36 0 -26 44 c-14 25 -26 47 -26 50 0 3 61 34 135 70 129 62 282 158
369 233 29 24 46 31 60 27 27 -8 27 -9 20 -27 -4 -12 -11 -14 -23 -7 -25 13
-43 -7 -30 -33 9 -15 2 -38 -36 -115 -26 -54 -49 -92 -52 -85 -2 6 10 37 28
67 17 31 35 72 39 92 7 30 6 35 -8 32 -11 -3 -16 -12 -15 -26 3 -24 -45 -106
-134 -234 l-55 -79 -19 31 c-11 17 -17 36 -13 41 7 13 -15 41 -27 33 -15 -9
-10 -33 11 -54 34 -34 35 -66 4 -108 -48 -63 -158 -192 -165 -192 -4 0 -10 45
-14 100 -6 87 -5 103 10 120 18 20 17 61 -2 68 -9 2 -13 -7 -13 -26 0 -18 -6
-32 -16 -36 -8 -3 -12 -11 -9 -16 6 -9 -43 -286 -52 -299 -2 -3 -10 5 -19 17
-8 13 -33 43 -55 68 -23 27 -39 55 -39 71 0 17 -7 27 -21 30 -11 3 -64 59
-119 125 -91 110 -98 122 -90 149 11 38 -5 48 -32 19 -12 -13 -18 -29 -15 -42
9 -31 -24 -191 -41 -205 -19 -15 -7 -46 15 -41 11 2 17 11 15 23 -4 28 31 206
39 203 20 -8 199 -239 199 -257 0 -12 6 -21 13 -21 17 0 119 -127 121 -149 1
-14 -15 -16 -130 -16 l-130 0 -150 139 c-94 88 -148 146 -147 157 3 23 -22 43
-46 36 -13 -3 -29 5 -46 23 l-26 27 78 50 c43 27 182 113 308 191 165 102 615
390 641 411 0 1 -41 -81 -92 -180z m-2230 146 c-4 -8 -8 -15 -10 -15 -2 0 -4
7 -4 15 0 8 4 15 10 15 5 0 7 -7 4 -15z m1226 -3 c0 -11 -9 -27 -19 -36 -16
-15 -22 -15 -40 -4 -31 19 -26 28 17 29 20 1 29 3 19 6 -20 5 -13 23 9 23 8 0
14 -8 14 -18z m1919 -62 c0 -23 -15 7 -22 45 l-6 30 14 -30 c8 -16 14 -37 14
-45z m-3175 18 c3 -24 7 -68 10 -98 l4 -55 -18 40 c-19 42 -27 155 -11 155 6
0 12 -19 15 -42z m2201 34 c-19 -16 -171 -112 -178 -112 -7 0 12 61 24 74 5 5
39 17 76 27 79 21 91 22 78 11z m-922 -29 c-6 -16 -4 -16 9 -5 22 18 142 6
134 -14 -3 -7 -10 -31 -16 -53 l-11 -41 -57 6 c-31 3 -88 9 -127 12 -62 6 -71
10 -85 34 -13 25 -13 29 3 45 17 17 18 16 40 -11 20 -25 26 -27 44 -18 17 9
22 9 27 -3 6 -17 32 -20 41 -5 10 16 -14 40 -33 33 -15 -5 -14 -3 2 15 23 26
38 29 29 5z m1541 -67 c14 -46 26 -94 26 -107 0 -32 -111 -278 -182 -404 -76
-134 -191 -300 -208 -300 -8 0 -19 12 -24 26 -8 23 2 48 66 175 79 158 120
249 124 274 1 8 11 40 22 70 11 30 21 66 21 80 0 14 6 54 14 89 11 52 23 75
63 122 27 32 50 59 51 59 1 0 13 -38 27 -84z m-1626 39 c-3 -3 -9 2 -12 12 -6
14 -5 15 5 6 7 -7 10 -15 7 -18z m363 -4 c4 -3 9 -42 13 -85 6 -79 6 -79 -14
-61 -14 13 -17 22 -10 30 15 18 1 45 -21 45 -10 0 -19 -4 -19 -10 0 -11 -59
-14 -83 -4 -13 5 -13 12 1 55 l16 50 56 -7 c30 -3 58 -9 61 -13z m461 -6 c-2
-14 -6 -25 -8 -25 -2 0 -4 11 -4 25 0 14 4 25 9 25 4 0 6 -11 3 -25z m-1939
-145 c24 -69 70 -185 100 -257 30 -73 52 -133 48 -133 -4 0 -23 17 -44 38 -26
26 -34 41 -27 51 10 18 -5 51 -24 51 -12 0 -66 131 -66 161 0 7 -6 20 -13 28
-14 16 -38 152 -36 201 1 31 -1 34 62 -140z m-98 63 c23 -53 37 -103 37 -125
-1 -21 3 -40 9 -43 11 -7 12 -75 1 -75 -19 0 -52 43 -62 83 -6 23 -15 56 -20
72 -14 46 -30 157 -24 166 12 20 24 4 59 -78z m1107 48 c-6 -28 -14 -36 -54
-51 -33 -12 -48 -14 -51 -6 -7 20 -57 -35 -57 -64 0 -14 -5 -31 -11 -37 -8 -8
-6 -15 10 -25 11 -7 21 -17 21 -22 0 -5 -9 -1 -19 8 -15 14 -20 14 -25 4 -3
-7 -4 5 -1 27 3 22 5 50 5 62 0 14 17 34 49 57 27 20 52 36 57 36 4 0 -1 -6
-12 -14 -10 -8 -16 -17 -13 -20 3 -3 28 14 55 38 27 25 50 44 51 43 1 -1 -2
-17 -5 -36z m560 33 c6 -6 -40 -133 -53 -148 -5 -6 -9 16 -9 50 0 32 -3 69 -6
82 -6 20 -3 22 28 22 19 0 37 -3 40 -6z m136 -18 c57 -8 106 -17 110 -20 9
-10 -9 -23 -53 -39 -22 -8 -48 -18 -58 -22 -13 -5 -16 -3 -11 8 3 8 0 18 -7
22 -9 6 -10 1 -7 -19 3 -16 1 -26 -7 -26 -6 0 -38 -11 -71 -24 -32 -13 -61
-22 -63 -20 -6 5 50 154 58 154 3 0 52 -7 109 -14z m-1650 -87 l73 -77 -12
-68 c-17 -104 -18 -104 -51 -26 l-30 72 24 21 23 20 -30 -6 c-30 -6 -31 -5
-53 63 -20 61 -27 93 -19 81 1 -2 35 -38 75 -80z m982 47 c-14 -14 -22 -2 -14
18 5 14 9 15 15 4 4 -7 4 -17 -1 -22z m825 -6 c10 -11 16 -22 14 -24 -18 -16
-182 -116 -185 -113 -5 5 75 117 83 117 3 0 12 -8 19 -17 10 -15 15 -16 25 -5
11 10 10 12 -4 12 -17 0 -17 1 0 25 22 30 25 30 48 5z m1474 -9 c15 -21 19
-37 15 -60 -4 -18 -9 -30 -11 -27 -5 5 -32 116 -27 116 1 0 12 -13 23 -29z
m-106 -48 c17 -71 14 -120 -14 -250 l-12 -58 -14 55 c-19 74 -20 182 -3 258 8
34 17 62 21 62 3 0 13 -30 22 -67z m-2000 41 c44 -4 77 -11 77 -17 0 -30 -52
-177 -63 -177 -11 1 -158 178 -166 202 -2 6 10 8 35 4 22 -3 74 -8 117 -12z
m-156 -13 c7 -11 42 -56 79 -102 56 -68 63 -81 43 -76 -13 3 -67 14 -119 23
-52 10 -96 19 -98 20 -2 1 17 82 34 142 5 19 48 14 61 -7z m2231 -14 c14 -38
15 -73 5 -143 -6 -42 -8 -45 -14 -24 -12 42 -10 125 4 140 10 12 9 12 -5 2
-20 -16 -28 -5 -21 31 7 36 16 34 31 -6z m-2311 11 c-2 -7 -10 -39 -18 -71
-12 -58 -13 -59 -42 -53 -16 3 -38 6 -48 6 -15 0 -19 7 -19 33 0 45 12 59 67
79 59 20 66 21 60 6z m1493 -8 c0 -5 -25 -29 -56 -54 -51 -42 -57 -44 -72 -30
-14 14 -17 14 -26 1 -11 -14 -200 -98 -220 -96 -6 0 27 20 74 43 143 73 265
138 274 147 10 9 26 3 26 -11z m-1045 -21 c55 -48 46 -66 -55 -116 -93 -47
-126 -54 -115 -25 4 9 16 46 26 82 11 36 22 71 24 78 3 7 21 12 44 12 31 0 49
-7 76 -31z m1691 -46 l13 -43 -69 -35 c-39 -19 -70 -30 -70 -24 0 8 62 131 87
173 7 11 23 -17 39 -71z m-2656 -23 c0 -83 -2 -90 -20 -90 -23 0 -39 -26 -33
-51 4 -12 0 -19 -9 -19 -26 0 -46 25 -52 65 -5 36 0 48 42 113 25 39 52 72 59
72 10 0 13 -24 13 -90z m1230 45 c-28 -41 -33 -44 -63 -38 -85 17 -85 17 -1
50 43 17 83 31 87 32 4 1 -6 -19 -23 -44z m-1132 0 c34 -15 62 -30 62 -34 -1
-6 -123 -92 -142 -99 -4 -2 -8 35 -8 83 0 66 3 86 13 82 6 -3 40 -17 75 -32z
m241 3 c-1 -13 -5 -36 -8 -53 l-7 -30 -19 38 c-18 36 -18 37 1 52 27 20 34 19
33 -7z m1756 -29 c-9 -24 -19 -46 -24 -49 -4 -3 -20 -38 -36 -77 -30 -77 -41
-93 -30 -43 12 55 -1 31 -40 -70 -20 -55 -41 -100 -46 -100 -12 0 -14 -4 35
106 24 54 48 98 54 97 14 -3 43 72 36 94 -5 15 -4 15 5 3 8 -12 11 -11 17 5
20 56 35 88 39 83 3 -3 -2 -25 -10 -49z m-2711 -23 c8 -27 11 -45 7 -40 -11
12 -31 74 -30 93 1 19 4 12 23 -53z m3416 12 c0 -18 -2 -20 -9 -8 -6 8 -7 18
-5 22 9 14 14 9 14 -14z m-2548 -52 c-11 -46 -21 -66 -34 -69 -24 -7 -33 -34
-17 -53 29 -35 86 7 62 46 -10 15 -10 31 -1 70 6 27 15 50 20 50 18 0 78 -173
111 -318 8 -33 -11 -27 -134 45 l-101 58 6 71 c3 39 10 83 15 96 8 22 64 67
82 68 4 0 -1 -29 -9 -64z m2087 -27 c12 -41 21 -85 21 -97 0 -11 6 -25 13 -29
21 -13 87 -255 74 -271 -19 -24 -267 -130 -267 -115 0 17 44 113 52 113 4 0 8
7 8 17 0 9 14 53 31 97 22 56 43 91 67 114 19 17 33 34 30 37 -3 3 -11 -1 -18
-10 -19 -23 -28 -18 -24 13 l4 27 -15 -30 c-8 -16 -14 -35 -15 -41 0 -6 -39
-42 -87 -81 -98 -78 -128 -98 -101 -67 20 23 135 262 169 351 13 34 27 59 31
55 3 -4 15 -41 27 -83z m-1165 64 c12 -3 15 -8 8 -15 -10 -10 -112 16 -112 29
0 5 70 -4 104 -14z m-1448 -34 c35 -27 55 -50 59 -70 4 -16 13 -33 21 -37 12
-7 14 -20 8 -62 -6 -46 -13 -59 -53 -97 -25 -23 -49 -43 -52 -43 -3 0 -23 36
-43 81 -35 79 -36 82 -26 147 15 94 21 122 27 122 4 0 30 -18 59 -41z m3139
31 c3 -5 1 -10 -4 -10 -6 0 -11 5 -11 10 0 6 2 10 4 10 3 0 8 -4 11 -10z
m-1751 -16 l48 -17 -68 -38 c-38 -21 -70 -36 -72 -34 -3 3 2 23 23 93 6 16 12
15 69 -4z m-104 -9 c9 -11 9 -22 0 -50 -13 -40 -8 -39 -102 -23 l-70 11 73 37
c90 45 84 43 99 25z m1493 -57 c-8 -10 -25 -20 -36 -24 -15 -5 -17 -8 -6 -15
9 -5 23 -2 37 7 26 17 27 15 36 -59 5 -41 3 -47 -11 -45 -10 2 -19 -4 -21 -14
-2 -13 3 -18 18 -18 20 0 21 -4 18 -76 -3 -72 -5 -78 -34 -100 l-30 -24 -38
131 c-30 103 -35 133 -26 144 7 8 10 22 6 30 -3 8 -2 15 3 15 4 0 25 28 46 62
l39 62 8 -29 c5 -21 3 -34 -9 -47z m307 -23 c8 -48 6 -52 -28 -97 -20 -26 -37
-46 -39 -44 -2 2 6 56 19 120 24 123 31 126 48 21z m-2335 64 c11 -17 0 -20
-21 -4 -17 13 -17 14 -2 15 9 0 20 -5 23 -11z m2164 -99 c-12 -45 -28 -88 -37
-96 -9 -9 -15 -36 -16 -65 -1 -27 -7 -54 -12 -59 -8 -8 -13 17 -18 82 -4 51
-9 114 -12 140 l-6 46 58 30 c71 36 73 33 43 -78z m-2482 68 c-3 -18 -9 -52
-12 -76 -7 -41 -8 -42 -25 -27 -18 16 -18 18 0 58 9 23 20 50 23 60 11 29 20
19 14 -15z m292 13 c19 -15 22 -23 15 -44 l-9 -26 -33 30 c-27 24 -31 33 -22
45 16 18 20 18 49 -5z m191 -6 c52 -9 101 -18 108 -21 8 -2 -3 -27 -34 -73
l-46 -70 -89 77 c-49 42 -89 81 -89 87 0 19 13 26 35 21 11 -2 63 -12 115 -21z
m-1099 -138 c-10 -10 -48 11 -55 29 -3 7 -2 38 1 70 l6 57 28 -73 c17 -42 25
-78 20 -83z m909 44 c0 -9 -8 -46 -17 -83 -17 -68 -33 -89 -33 -44 0 19 -23
110 -57 220 -4 14 12 4 51 -28 31 -27 56 -56 56 -65z m-335 56 c-16 -40 -26
-45 -44 -23 -9 11 -5 19 21 39 18 14 34 25 35 23 2 -2 -4 -19 -12 -39z m2585
-96 l14 -84 -28 -23 c-35 -30 -48 -22 -40 23 5 24 3 38 -6 43 -11 7 -9 22 8
74 12 37 22 74 23 84 1 28 15 -25 29 -117z m-3290 93 c0 -8 -4 -12 -10 -9 -5
3 -10 13 -10 21 0 8 5 12 10 9 6 -3 10 -13 10 -21z m2639 -13 c-6 -18 -13 -30
-15 -28 -2 2 1 18 7 36 6 18 13 30 15 28 2 -2 -1 -18 -7 -36z m-1455 -61 c35
-30 65 -58 65 -61 1 -3 -5 -13 -12 -23 -11 -15 -20 -11 -93 54 -68 59 -80 75
-76 95 5 29 2 31 116 -65z m2247 67 c-10 -9 -11 -8 -5 6 3 10 9 15 12 12 3 -3
0 -11 -7 -18z m-1948 1 c42 -6 77 -14 77 -17 0 -8 -211 -123 -216 -118 -8 8
40 147 50 147 6 0 46 -5 89 -12z m-142 -77 c-21 -69 -44 -92 -57 -56 -6 15 64
140 73 131 3 -3 -4 -37 -16 -75z m-682 37 c-24 -17 -99 -46 -99 -39 0 5 17 23
37 40 33 27 39 29 52 16 8 -8 13 -16 10 -17z m-649 8 c0 -3 -4 -8 -10 -11 -5
-3 -10 -1 -10 4 0 6 5 11 10 11 6 0 10 -2 10 -4z m472 -10 c16 -12 14 -16 -20
-49 -21 -20 -41 -37 -44 -37 -10 0 13 84 25 92 16 10 19 10 39 -6z m683 -90
c46 -41 48 -46 37 -70 -16 -35 -23 -33 -49 13 -12 21 -38 59 -57 85 -20 25
-36 49 -36 52 0 7 45 -27 105 -80z m865 -4 l39 -81 -72 6 c-115 9 -113 7 -60
91 25 40 47 71 49 69 3 -2 22 -41 44 -85z m-1360 70 c0 -8 -25 -100 -36 -132
-3 -9 -16 5 -34 38 -17 28 -30 54 -30 57 0 6 79 44 93 45 4 0 7 -4 7 -8z m47
-24 c13 -12 23 -29 23 -38 0 -16 -86 -107 -94 -99 -5 5 37 159 43 159 3 0 15
-10 28 -22z m1883 6 c0 -20 -113 -259 -117 -247 -2 5 10 43 27 84 17 41 40 98
51 127 20 50 39 69 39 36z m-2537 -66 c9 -27 14 -48 12 -48 -8 0 -55 90 -55
106 0 30 25 -4 43 -58z m66 13 c10 -18 -5 -111 -18 -111 -7 0 -51 139 -51 160
0 15 57 -26 69 -49z m957 26 c46 -68 74 -117 74 -127 0 -5 -15 -10 -34 -10
-25 0 -43 9 -68 34 l-34 34 14 51 c8 28 17 51 21 51 3 0 16 -15 27 -33z m373
9 c-55 -37 -111 -67 -116 -62 -2 2 17 17 44 32 26 15 57 33 68 40 37 24 40 14
4 -10z m-889 -42 c18 -30 31 -57 29 -58 -2 -2 -33 10 -68 27 l-64 30 34 28
c19 16 35 29 36 29 1 0 16 -25 33 -56z m2830 30 c0 -26 -72 -103 -78 -84 -3 8
66 108 76 110 1 0 2 -11 2 -26z m-957 -94 c-26 -43 -50 -77 -55 -74 -9 6 -4
16 57 116 49 80 47 42 -2 -42z m-1562 24 c54 -31 99 -61 99 -65 0 -5 -5 -29
-12 -54 -13 -47 -26 -53 -43 -19 -15 30 -147 186 -152 180 -3 -3 27 -43 67
-90 74 -88 81 -113 28 -102 -29 6 -148 55 -148 62 0 20 35 131 44 136 15 10 7
14 117 -48z m398 9 c-15 -18 -34 -1 -25 22 5 14 9 15 21 5 12 -10 13 -16 4
-27z m1218 20 c-2 -5 -11 -26 -21 -48 -44 -101 -65 -138 -72 -121 -4 10 8 39
29 75 19 33 38 69 42 80 3 12 11 21 16 21 6 0 8 -3 6 -7z m-2430 -59 c14 -30
23 -58 20 -61 -11 -11 -27 9 -37 48 -6 22 -14 47 -17 55 -3 8 -2 14 1 14 4 0
19 -25 33 -56z m140 24 c38 -40 50 -79 30 -96 -11 -10 -24 -8 -59 7 l-45 19
10 51 c5 28 15 51 21 51 7 0 26 -15 43 -32z m275 19 c15 -12 13 -16 -23 -37
-21 -14 -39 -28 -39 -32 0 -5 -4 -8 -10 -8 -19 0 -10 34 17 62 30 32 32 32 55
15z m237 -51 c-10 -42 -13 -45 -33 -34 -11 6 -22 12 -24 13 -1 1 12 18 30 38
18 20 34 34 36 33 1 -2 -2 -24 -9 -50z m2128 -12 c-19 -46 -98 -234 -101 -240
-1 -1 -11 -5 -23 -8 -22 -7 -22 -6 -18 81 l4 88 -12 -87 c-7 -48 -16 -90 -20
-94 -10 -10 -149 -54 -145 -45 22 48 151 224 177 242 19 13 62 47 95 76 33 29
61 51 63 49 2 -1 -8 -29 -20 -62z m-1537 46 c0 -5 -7 -10 -16 -10 -8 0 -12 5
-9 10 3 6 10 10 16 10 5 0 9 -4 9 -10z m2118 -27 c-29 -110 -106 -294 -128
-308 -25 -16 -19 8 26 96 39 78 70 153 99 237 10 28 13 9 3 -25z m-2188 17 c0
-5 -4 -10 -10 -10 -5 0 -10 5 -10 10 0 6 5 10 10 10 6 0 10 -4 10 -10z m-723
-22 c-28 -114 -41 -149 -55 -146 -25 5 -39 35 -25 56 7 9 24 38 38 65 26 49
51 64 42 25z m2706 2 c3 -13 -3 -24 -20 -35 -31 -21 -33 -18 -17 23 16 36 29
41 37 12z m73 -46 c-7 -19 -35 -18 -43 2 -3 9 4 26 18 40 l24 26 3 -27 c2 -15
1 -33 -2 -41z m-2837 12 c-18 -30 -24 -34 -36 -24 -13 10 -10 16 18 40 17 16
34 27 36 24 2 -2 -6 -20 -18 -40z m138 -62 c12 -49 21 -90 20 -91 -3 -3 -121
27 -125 32 -4 4 22 97 38 141 18 45 42 15 67 -82z m2750 69 c-6 -38 -57 -162
-67 -163 -11 0 3 100 16 111 8 6 14 19 14 28 0 17 27 61 37 61 3 0 3 -17 0
-37z m-2967 -12 c0 -34 -2 -38 -20 -34 -11 3 -22 9 -25 13 -4 7 31 60 41 60 2
0 4 -18 4 -39z m850 18 c-17 -14 -26 -17 -28 -9 -5 14 16 30 38 30 10 -1 7 -7
-10 -21z m-171 -8 c13 -24 -3 -83 -33 -118 -31 -36 -50 -23 -42 29 15 91 51
134 75 89z m355 -58 c4 -15 14 -23 29 -23 22 -1 210 -170 188 -170 -6 0 -11
-7 -11 -16 0 -12 6 -15 23 -10 18 4 32 -3 62 -34 l39 -40 -49 6 c-225 27 -575
106 -575 130 0 8 -11 21 -24 29 -20 13 -29 14 -48 5 -63 -33 19 26 152 108
l144 90 32 -26 c18 -15 35 -37 38 -49z m-761 42 l45 -25 -19 -62 c-21 -67 -26
-75 -36 -65 -11 11 -52 177 -44 177 5 0 29 -11 54 -25z m1837 12 c0 -2 -9 -30
-20 -63 -11 -32 -20 -68 -20 -79 -1 -20 -1 -20 -15 -1 -19 25 -19 50 0 66 8 7
13 16 10 20 -3 4 2 13 10 20 8 7 15 19 15 26 0 8 5 14 10 14 6 0 10 -2 10 -3z
m-1310 -17 c0 -5 -18 -10 -41 -10 -24 0 -38 4 -34 10 3 6 22 10 41 10 19 0 34
-4 34 -10z m2078 -96 c2 -70 0 -81 -29 -125 -33 -52 -36 -54 -58 -40 -19 12 7
88 49 140 51 65 34 56 -46 -25 -41 -42 -77 -74 -80 -72 -2 3 10 43 27 89 25
65 40 91 67 112 32 24 37 26 52 12 12 -11 17 -35 18 -91z m-3128 21 c12 -7 13
-45 2 -45 -5 0 -19 21 -31 46 -19 38 -21 48 -10 55 10 6 16 1 22 -21 4 -16 12
-32 17 -35z m47 50 l36 -15 -23 -25 c-13 -14 -26 -25 -30 -25 -6 0 -40 64 -40
75 0 9 20 5 57 -10z m243 -6 c0 -6 -4 -7 -10 -4 -5 3 -10 11 -10 16 0 6 5 7
10 4 6 -3 10 -11 10 -16z m729 7 c-8 -9 -80 -56 -84 -56 -2 0 1 14 6 30 9 26
16 30 47 30 19 0 33 -2 31 -4z m1214 -39 c-16 -30 -18 -31 -21 -9 -4 25 15 55
29 46 5 -3 1 -20 -8 -37z m-2069 11 c-20 -66 -23 -69 -45 -57 -21 11 -21 11
12 45 39 40 43 41 33 12z m74 0 c-6 -18 -28 -21 -28 -4 0 9 7 16 16 16 9 0 14
-5 12 -12z m429 -33 c40 -22 73 -42 73 -45 0 -3 -8 -15 -18 -27 -16 -22 -20
-22 -87 -12 -38 6 -75 13 -82 15 -12 3 -9 17 22 102 6 16 0 18 92 -33z m81
-14 c2 -6 0 -11 -5 -11 -10 0 -113 59 -113 65 0 8 115 -44 118 -54z m-539 -40
c12 -49 21 -94 21 -101 0 -15 -42 21 -71 61 -19 26 -18 28 2 78 12 28 23 51
25 51 1 0 12 -40 23 -89z m2054 38 c-3 -10 -1 -19 5 -19 11 0 -11 -64 -30 -88
-21 -24 -19 -3 2 38 12 23 19 44 17 46 -3 3 -14 -15 -26 -40 -24 -49 -51 -78
-51 -55 0 8 12 37 25 64 14 28 25 55 25 61 0 5 5 15 12 22 15 15 28 -2 21 -29z
m707 -45 c-42 -106 -54 -119 -82 -91 -7 8 -19 16 -26 18 -10 3 -7 10 9 24 22
20 22 20 15 -1 -5 -15 -2 -24 10 -28 9 -4 18 -5 19 -4 18 29 45 81 45 89 0 5
-10 13 -22 18 -21 7 -20 9 17 34 21 15 41 25 43 23 2 -2 -11 -39 -28 -82z
m-2725 -31 c10 -43 20 -84 23 -93 3 -10 2 -12 -6 -5 -13 12 -54 187 -42 180 4
-3 16 -40 25 -82z m40 16 c30 -58 35 -79 33 -122 -3 -51 -3 -51 -17 -27 -13
22 -61 191 -61 212 0 20 12 3 45 -63z m1703 -96 c-12 -13 -25 -23 -28 -23 -4
0 1 37 11 83 10 45 19 89 20 97 1 8 5 -19 10 -60 7 -68 6 -77 -13 -97z m196
130 c-2 -21 -3 -42 -4 -48 0 -5 -5 -17 -10 -25 -8 -13 -11 -12 -23 4 -9 12
-20 17 -31 13 -25 -10 -15 -42 12 -41 14 0 22 -5 22 -17 0 -11 -14 -20 -46
-28 -45 -12 -64 -9 -64 10 0 11 131 168 141 169 3 0 5 -17 3 -37z m-1862 15
c13 -10 15 -22 9 -53 l-7 -40 -27 53 c-25 47 -26 52 -9 52 10 0 25 -6 34 -12z
m-232 -17 c0 -20 -27 -48 -37 -37 -8 7 17 56 29 56 4 0 8 -8 8 -19z m728 1 c2
-7 -6 -12 -17 -12 -21 0 -27 11 -14 24 9 9 26 2 31 -12z m2074 -14 c-10 -18
-36 -45 -58 -59 -51 -35 -255 -141 -260 -136 -2 2 8 26 23 53 24 46 32 53 89
73 35 12 98 40 141 61 43 21 79 39 80 39 2 1 -6 -14 -15 -31z m-2406 -22 c7
-6 15 -29 19 -50 l6 -39 -43 33 c-24 19 -55 45 -70 59 -15 13 -30 22 -33 19
-4 -3 27 -32 67 -65 40 -32 74 -66 75 -74 5 -28 -15 -42 -70 -47 l-55 -4 -21
40 c-23 45 -27 107 -10 145 l11 25 57 -16 c31 -8 61 -20 67 -26z m296 10 c22
-16 13 -26 -24 -26 -30 0 -35 9 -16 28 15 15 19 15 40 -2z m-672 -43 l0 -36
-25 23 c-23 22 -24 25 -9 41 22 25 34 15 34 -28z m2170 7 c-16 -31 -23 -18 -8
15 7 15 14 23 16 17 2 -6 -2 -21 -8 -32z m-2240 20 c0 -5 -5 -10 -11 -10 -5 0
-7 5 -4 10 3 6 8 10 11 10 2 0 4 -4 4 -10z m197 -135 c-5 -43 -32 -26 -70 43
-20 38 -37 75 -37 82 0 7 25 -13 55 -46 34 -36 54 -67 52 -79z m280 103 c-3
-7 -5 -2 -5 12 0 14 2 19 5 13 2 -7 2 -19 0 -25z m150 13 l33 -6 -31 -47 c-17
-27 -37 -48 -43 -48 -10 0 -66 99 -66 116 0 5 31 0 107 -15z m2244 -18 c-8
-15 -10 -15 -11 -2 0 17 10 32 18 25 2 -3 -1 -13 -7 -23z m-2828 -17 c27 -35
34 -56 18 -56 -13 0 -32 26 -24 33 3 4 1 7 -5 7 -7 0 -12 7 -12 16 0 8 -4 12
-10 9 -5 -3 -10 1 -10 9 0 25 13 19 43 -18z m497 -26 c17 -33 27 -60 23 -60
-16 0 -73 46 -73 60 0 19 11 60 16 60 2 0 17 -27 34 -60z m307 43 c3 -10 13
-26 21 -35 31 -37 -13 -64 -58 -36 -15 9 -22 10 -31 1 -17 -17 -1 -34 27 -27
49 12 55 1 34 -61 -10 -30 -21 -59 -24 -64 -7 -11 -196 46 -215 65 -8 7 -13
15 -10 18 25 23 225 156 236 156 7 0 16 -8 20 -17z m2137 -5 c-9 -31 -12 -34
-26 -20 -8 8 -8 15 2 27 19 22 32 18 24 -7z m-2297 -8 c-14 -11 -28 -20 -31
-20 -4 0 -2 9 4 20 6 11 20 20 32 20 20 0 19 -1 -5 -20z m1581 -61 c-13 -17
-31 -29 -45 -29 -22 0 -22 2 14 51 34 48 37 50 45 30 6 -16 2 -30 -14 -52z
m-2158 20 l21 -40 -20 11 c-12 6 -21 17 -21 25 0 7 -3 20 -6 29 -12 32 6 15
26 -25z m985 -8 c153 -39 198 -47 375 -72 129 -17 148 -22 170 -45 l25 -26
-40 6 c-22 3 -76 8 -120 12 -44 3 -95 13 -114 22 -27 12 -37 13 -53 3 -15 -9
-48 -7 -166 14 -81 14 -159 28 -175 31 -19 4 -33 17 -47 44 -20 39 -17 53 9
45 9 -2 70 -18 136 -34z m1668 8 c-3 -17 -15 -29 -36 -38 -119 -47 -207 -78
-207 -72 0 4 30 22 68 40 37 18 92 47 122 65 30 18 56 33 57 32 1 -1 -1 -13
-4 -27z m190 9 c7 -11 4 -31 -12 -71 -25 -61 -42 -80 -85 -97 -27 -10 -28 -9
-22 12 4 13 13 48 21 78 10 35 25 62 43 77 30 24 41 25 55 1z m-806 -9 c-9 -6
-26 -20 -37 -31 -14 -16 -20 -18 -20 -7 -1 11 -4 10 -14 -3 -14 -18 -56 -25
-56 -9 0 11 59 36 67 28 3 -4 19 5 36 19 16 14 32 22 36 19 3 -4 -2 -11 -12
-16z m394 -27 c-21 -42 -50 -71 -38 -38 4 10 7 24 7 32 0 16 39 58 47 51 2 -3
-5 -23 -16 -45z m-2601 24 c0 -17 -14 -29 -23 -20 -8 8 3 34 14 34 5 0 9 -6 9
-14z m21 -19 c-8 -8 -11 -7 -11 4 0 20 13 34 18 19 3 -7 -1 -17 -7 -23z m969
-20 c0 -5 -7 -6 -16 -3 -9 3 -20 6 -25 6 -6 0 -5 9 2 22 11 21 12 21 25 3 8
-10 14 -23 14 -28z m1250 18 c-11 -13 -15 -13 -22 -3 -6 10 -10 7 -14 -9 -4
-13 -10 -23 -15 -23 -15 0 -10 16 11 35 11 10 20 14 20 10 0 -5 5 -4 12 3 17
17 23 6 8 -13z m320 -4 c-20 -71 -33 -78 -142 -83 -67 -2 -84 7 -40 23 17 6
34 19 37 30 4 11 22 23 48 29 23 6 53 15 67 20 38 13 39 12 30 -19z m485 -21
c-36 -38 -31 -49 7 -14 27 24 29 25 13 4 -11 -14 -22 -27 -25 -30 -3 -3 -14
-22 -25 -44 -10 -21 -21 -33 -23 -28 -2 6 4 24 12 41 9 16 12 31 8 33 -5 2 0
22 10 46 16 36 22 41 34 31 13 -10 11 -16 -11 -39z m-2665 -12 c0 -5 -7 -8
-15 -8 -10 0 -15 10 -15 33 l1 32 14 -25 c8 -14 14 -28 15 -32z m1670 45 c0
-15 -15 -29 -45 -42 l-30 -13 29 31 c29 30 46 39 46 24z m-1480 -41 c-27 -4
-34 2 -26 24 6 15 8 15 27 -2 l21 -19 -22 -3z m-584 -9 c-3 -16 -8 -49 -12
-75 -3 -27 -10 -48 -14 -48 -4 0 -15 18 -25 40 -17 38 -17 43 -2 75 11 24 24
35 38 35 17 0 20 -5 15 -27z m41 12 c-4 -8 -2 -17 2 -20 10 -6 35 -193 29
-220 -2 -14 -12 -8 -41 29 l-39 47 10 77 c6 42 16 78 21 80 6 2 9 8 5 13 -3 5
0 9 6 9 7 0 10 -7 7 -15z m33 5 c0 -5 -4 -10 -10 -10 -5 0 -10 5 -10 10 0 6 5
10 10 10 6 0 10 -4 10 -10z m130 -82 c1 -18 -17 -5 -40 29 -43 65 -43 69 -1
23 22 -25 40 -48 41 -52z m8 69 c6 -5 12 -19 12 -30 0 -20 0 -20 -21 -1 -11
10 -25 27 -30 36 -8 14 -6 16 8 11 10 -3 24 -10 31 -16z m96 -2 c-4 -8 -10
-15 -15 -15 -5 0 -9 7 -9 15 0 8 7 15 15 15 9 0 12 -6 9 -15z m698 -2 c4 -2
39 -65 78 -140 l71 -137 -23 -18 c-32 -24 -40 -22 -60 13 -10 17 -22 28 -26
25 -5 -3 -39 26 -77 64 l-68 69 23 70 c23 66 26 70 50 64 14 -3 28 -7 32 -10z
m1058 2 c-7 -8 -22 -15 -34 -15 -20 1 -20 2 4 15 33 19 46 19 30 0z m783 -25
c-7 -109 -41 -216 -91 -287 -60 -87 -107 -126 -144 -121 -16 3 -31 1 -34 -4
-3 -4 -31 -8 -62 -7 -44 1 -51 3 -32 9 67 21 155 71 224 124 42 33 74 62 71
64 -2 3 -36 -21 -74 -52 -39 -31 -72 -56 -75 -56 -15 0 -3 27 18 40 127 80
146 96 146 118 0 12 9 41 21 63 11 23 18 43 15 46 -3 3 -15 -15 -28 -41 -29
-61 -50 -60 -138 6 -38 29 -68 53 -67 54 10 11 217 82 232 81 16 -2 20 -8 18
-37z m56 -24 c-10 -32 -25 -66 -31 -74 -11 -13 -10 -15 5 -9 24 9 22 -3 -14
-89 -29 -70 -49 -94 -49 -58 0 26 22 108 33 122 11 14 15 32 21 97 3 25 12 46
26 57 13 10 24 17 26 16 1 -2 -6 -30 -17 -62z m-559 36 c0 -17 -136 -190 -173
-221 -15 -12 -22 -10 -52 10 l-34 24 23 25 c12 14 50 57 85 95 61 68 82 82
129 84 15 1 22 -5 22 -17z m-1740 -2 c0 -5 -5 -10 -12 -10 -6 0 -22 -10 -35
-22 -16 -15 -23 -17 -23 -7 0 8 4 19 8 25 13 21 62 32 62 14z m-506 -22 c22
-32 20 -58 -4 -58 -14 0 -20 7 -20 24 0 13 -3 31 -6 40 -9 24 13 19 30 -6z
m217 5 c23 -4 27 -12 33 -50 3 -25 6 -60 6 -76 l0 -31 -41 39 c-66 65 -82 91
-69 116 8 14 17 18 28 14 9 -3 29 -9 43 -12z m209 -14 c-9 -31 -36 -69 -50
-69 -10 0 -50 87 -43 94 4 3 28 6 54 6 l48 0 -9 -31z m748 -3 c73 -12 135 -26
138 -29 9 -8 -164 -142 -184 -142 -10 0 -51 45 -96 104 l-78 104 43 -7 c24 -3
104 -17 177 -30z m-844 -7 c25 -43 15 -45 -24 -4 -29 30 -31 35 -14 35 11 0
27 -13 38 -31z m1706 -4 c-27 -28 -40 -32 -40 -10 0 14 51 48 59 39 3 -2 -6
-15 -19 -29z m-1711 -104 c-19 -17 -37 -31 -40 -31 -3 0 -10 36 -15 80 l-9 80
49 -49 49 -49 -34 -31z m1451 122 c0 -5 -16 -18 -35 -31 -32 -20 -38 -21 -68
-9 -17 8 -38 21 -46 30 -12 16 -7 17 68 17 44 0 81 -3 81 -7z m190 -23 c-36
-33 -48 -36 -74 -17 -17 13 -17 14 -1 30 10 11 33 17 62 17 l45 0 -32 -30z
m-1418 -3 c18 -14 125 -274 116 -283 -7 -7 -250 177 -255 192 -3 10 104 104
117 104 3 -1 12 -6 22 -13z m1318 -4 c0 -20 -28 -53 -47 -53 -20 0 -15 21 7
27 11 3 17 9 14 14 -6 11 4 29 17 29 5 0 9 -8 9 -17z m560 8 c0 -9 -149 -146
-153 -140 -2 2 -1 34 1 71 l4 67 46 4 c93 7 102 7 102 -2z m-1732 -36 c45 -14
82 -31 82 -38 0 -13 -74 -204 -82 -212 -2 -3 -28 55 -57 128 -29 72 -56 138
-59 146 -3 9 1 12 14 8 10 -4 56 -18 102 -32z m1106 10 c-18 -14 -44 -20 -44
-10 0 7 54 34 59 29 3 -2 -4 -11 -15 -19z m459 -58 c-3 -42 -10 -77 -15 -77
-10 0 -1 136 9 153 10 17 12 -1 6 -76z m613 27 c-24 -50 -104 -159 -112 -152
-2 3 5 22 15 44 10 21 22 54 26 72 5 23 16 37 38 49 18 8 36 22 40 30 5 8 11
13 13 10 2 -2 -7 -26 -20 -53z m-2996 -131 c0 -94 -12 -124 -23 -55 -4 20 -11
57 -16 82 -6 25 -10 70 -10 100 l0 55 24 -45 c20 -38 24 -59 25 -137z m1663
163 c65 -7 121 -16 124 -20 4 -3 -2 -13 -13 -21 -26 -19 -229 -125 -241 -125
-11 0 -64 160 -57 172 7 11 47 10 187 -6z m-484 -90 c41 -53 50 -70 40 -77
-18 -12 -42 17 -86 106 -39 77 -32 73 46 -29z m1175 42 c-3 -29 -14 -65 -25
-80 -23 -33 -24 -42 -4 -58 16 -13 21 -55 7 -64 -10 -6 -123 66 -119 76 2 8
141 177 145 178 1 0 0 -24 -4 -52z m330 5 c77 -59 73 -54 80 -79 5 -18 -2 -28
-41 -56 -49 -35 -253 -159 -253 -153 0 1 16 47 36 101 20 55 43 122 51 149 31
102 40 105 127 38z m-2501 -34 c-25 -42 -33 -36 -33 23 l0 51 25 -23 c24 -22
24 -24 8 -51z m105 20 c18 -28 32 -53 29 -55 -5 -5 -77 86 -77 98 0 19 17 4
48 -43z m1195 -31 c32 -97 34 -92 -73 -129 l-70 -24 -41 41 -41 41 94 77 c51
42 95 76 98 76 3 0 18 -37 33 -82z m642 42 c-21 -22 -41 -37 -44 -35 -6 7 60
75 73 75 6 0 -7 -18 -29 -40z m403 -77 c-64 -185 -74 -203 -101 -203 -57 0
-52 21 44 174 50 80 93 146 95 146 2 0 -15 -53 -38 -117z m-2390 45 c-2 -38
-8 -63 -15 -66 -10 -3 -13 14 -13 62 0 53 3 66 15 66 13 0 15 -11 13 -62z
m1912 48 c-21 -8 -29 -15 -21 -17 8 -3 11 -10 7 -17 -11 -18 -26 -14 -26 8 0
22 25 40 55 39 13 0 7 -5 -15 -13z m-2122 -86 c-2 -99 -18 -126 -18 -31 0 58
9 121 17 121 2 0 3 -40 1 -90z m2152 65 c-13 -14 -26 -22 -29 -19 -3 3 5 14
18 25 33 27 39 24 11 -6z m444 13 c-19 -34 -118 -194 -126 -203 -4 -5 -8 16
-8 46 l0 55 68 57 c71 60 77 64 66 45z m-624 -23 c0 -6 -8 -20 -19 -29 -18
-16 -19 -16 -25 10 -5 17 -3 30 5 35 16 9 39 0 39 -16z m-1520 -79 c-5 -5 -11
-8 -13 -5 -1 2 -14 20 -28 39 -44 61 -43 66 5 20 30 -29 43 -47 36 -54z m1420
74 c-14 -11 -29 -20 -35 -20 -5 0 1 9 15 20 14 11 30 20 35 20 6 0 -1 -9 -15
-20z m-758 -135 c2 -24 9 -31 31 -35 27 -5 26 -7 -35 -41 -83 -48 -99 -52
-148 -38 -65 20 -66 26 -20 141 23 56 43 105 46 109 2 3 30 -19 63 -50 43 -40
61 -64 63 -86z m794 99 c-5 -14 -22 -22 -74 -39 -22 -6 -23 -5 -17 17 6 22 5
21 -15 -4 -12 -16 -27 -28 -35 -28 -7 0 -38 -12 -69 -26 -31 -14 -64 -24 -74
-22 -10 3 24 25 87 56 57 28 106 50 110 48 4 -3 25 5 46 18 41 22 55 16 41
-20z m99 36 c-3 -5 -11 -10 -16 -10 -6 0 -7 5 -4 10 3 6 11 10 16 10 6 0 7 -4
4 -10z m-1710 -23 c14 -21 14 -32 -1 -107 -21 -112 -32 -122 -78 -68 -20 23
-36 46 -36 52 0 6 18 -9 40 -34 22 -25 40 -40 40 -33 0 6 -4 14 -8 17 -5 3
-21 23 -36 45 l-28 39 44 55 c24 31 44 56 45 56 2 1 9 -10 18 -22z m498 -154
c50 -35 59 -58 27 -68 -35 -11 -57 4 -89 64 l-31 59 -65 -15 -64 -14 -30 33
-30 33 36 37 35 36 82 -66 c46 -37 104 -82 129 -99z m1230 134 c-4 -22 -10
-27 -24 -24 -20 5 -61 -35 -95 -92 -21 -36 -34 -40 -27 -8 9 38 83 128 117
142 17 7 32 13 33 12 1 -1 -1 -15 -4 -30z m-1861 -72 c14 -23 -4 -56 -33 -62
-16 -3 -31 -6 -35 -7 -3 0 -7 36 -8 80 l-1 82 35 -41 c19 -22 38 -45 42 -52z
m1902 44 c-21 -21 -35 -41 -32 -44 2 -3 21 13 42 35 20 22 42 40 49 40 7 0
-10 -20 -38 -44 -27 -24 -53 -42 -57 -40 -4 2 -13 -4 -20 -13 -16 -22 -48 -48
-48 -39 0 4 16 22 35 42 21 20 35 45 35 59 0 27 35 56 57 48 11 -4 5 -15 -23
-44z m-1674 -60 c0 -3 -14 -24 -31 -45 -17 -22 -37 -48 -45 -58 -24 -35 -27
-9 -9 84 l18 91 33 -32 c19 -18 34 -36 34 -40z m1504 27 c-16 -19 -41 -44 -55
-55 -24 -19 -28 -19 -33 -5 -4 10 1 22 11 29 10 7 36 27 57 44 49 39 57 33 20
-13z m321 20 l30 -25 -55 -56 c-108 -112 -357 -305 -392 -305 -22 0 -98 37
-97 48 0 4 51 39 112 79 103 66 286 211 331 262 24 27 34 26 71 -3z m-385 -21
c-24 -26 -40 -32 -40 -15 0 8 45 38 59 40 3 0 -6 -11 -19 -25z m-1277 -68 c-3
-5 -21 7 -41 26 -22 22 -32 39 -27 48 6 9 17 2 41 -26 18 -22 30 -43 27 -48z
m-518 11 c5 -24 3 -38 -3 -38 -14 0 -22 25 -22 68 1 44 14 27 25 -30z m1735
53 c0 -5 -11 -11 -25 -13 -14 -3 -25 -3 -25 -1 0 3 34 19 48 22 1 1 2 -3 2 -8z
m-420 -36 c37 -38 37 -41 0 -49 -21 -5 -29 0 -48 29 -39 62 -6 76 48 20z m599
-23 c-12 -25 -34 -49 -52 -58 -38 -20 -34 -8 19 64 45 59 63 56 33 -6z m497
-38 c-3 -8 -10 -14 -16 -14 -14 0 -13 83 3 99 10 10 13 4 15 -30 2 -23 1 -48
-2 -55z m-118 42 l43 -30 -92 -28 c-50 -15 -96 -25 -102 -21 -6 3 -7 1 -3 -5
6 -10 -69 -62 -90 -62 -5 0 34 43 85 94 52 52 99 92 105 89 6 -4 30 -20 54
-37z m-562 20 c20 -21 19 -23 -36 -51 -63 -32 -71 -31 -92 5 -20 35 -15 40 56
50 28 4 52 8 54 9 2 0 10 -5 18 -13z m-1057 -22 c11 -25 10 -26 -11 -20 -13 4
-35 9 -50 12 -50 11 -36 22 38 33 6 0 16 -11 23 -25z m579 -14 c23 -40 23 -40
2 -40 -26 0 -80 27 -80 40 0 9 39 40 50 40 3 0 15 -18 28 -40z m302 31 c0 -9
-86 -45 -132 -55 -54 -12 -27 9 45 36 83 30 87 31 87 19z m-1026 -121 c75 -64
84 -76 65 -78 -23 -4 -262 27 -291 37 -14 5 -8 18 38 79 55 72 55 72 77 55 12
-10 62 -52 111 -93z m1296 80 c0 -31 -16 -41 -26 -15 -5 13 11 45 22 45 2 0 4
-13 4 -30z m998 -17 c-23 -23 -46 -43 -51 -43 -5 0 9 20 29 43 21 24 44 44 51
44 8 0 -5 -20 -29 -44z m-2601 -66 c19 -37 12 -43 -34 -29 -62 19 -65 24 -58
76 l7 48 35 -34 c19 -18 41 -46 50 -61z m436 77 c35 -6 55 -19 45 -30 -3 -2
-24 3 -48 11 -23 8 -47 15 -53 15 -21 0 8 -17 61 -36 29 -10 59 -25 65 -33 10
-12 9 -13 -8 -8 -70 21 -150 56 -149 66 3 31 5 33 27 27 12 -3 39 -9 60 -12z
m875 -36 c-27 -67 -23 -63 -51 -45 -33 22 -25 59 16 80 53 26 58 22 35 -35z
m57 -8 c-4 -6 -20 -17 -36 -25 l-30 -16 17 38 c9 21 18 44 21 52 4 9 10 6 20
-13 8 -15 11 -31 8 -36z m120 -1 c-33 -33 -72 -67 -87 -75 -25 -13 -32 -13
-63 4 l-35 18 107 55 c60 31 115 57 123 58 8 0 -12 -26 -45 -60z m-1725 -3 c0
-28 -16 -8 -24 29 -6 28 -5 29 9 11 8 -11 15 -29 15 -40z m130 20 c0 -64 -10
-71 -36 -26 -29 50 -28 47 -6 53 37 10 42 7 42 -27z m1068 20 c2 -3 2 -12 -1
-19 -5 -14 -134 -44 -144 -34 -2 3 19 18 48 35 46 27 81 33 97 18z m192 -5 c0
-10 -24 -21 -46 -21 -8 0 -14 4 -14 9 0 8 10 12 53 20 4 0 7 -3 7 -8z m419
-12 c15 -26 17 -24 -81 -75 -38 -19 -68 -30 -68 -24 0 5 4 10 10 10 5 0 33 25
62 55 28 30 54 55 58 55 3 0 11 -10 19 -21z m871 13 c0 -9 -101 -54 -107 -48
-5 5 78 54 95 55 6 1 12 -3 12 -7z m-297 -17 c23 -16 14 -55 -11 -54 -45 1
-155 27 -142 32 88 38 126 43 153 22z m-2333 -11 c0 -8 -4 -12 -10 -9 -5 3
-10 10 -10 16 0 5 5 9 10 9 6 0 10 -7 10 -16z m797 -14 c-1 -11 -7 -20 -14
-20 -16 0 -17 12 -1 28 16 16 17 15 15 -8z m453 10 c-20 -13 -33 -13 -25 0 3
6 14 10 23 10 15 0 15 -2 2 -10z m100 0 c0 -5 -10 -10 -22 -10 -19 0 -20 2 -8
10 19 13 30 13 30 0z m-1370 -46 c0 -21 -4 -33 -10 -29 -5 3 -10 22 -10 41 0
21 4 33 10 29 6 -3 10 -22 10 -41z m63 5 c17 -43 15 -59 -6 -59 -17 0 -37 54
-30 80 8 30 18 24 36 -21z m841 9 c-3 -4 -16 -8 -30 -8 -17 0 -24 6 -24 19 0
17 3 18 29 8 17 -6 28 -15 25 -19z m-238 -3 c66 -25 99 -44 90 -52 -2 -2 -27
8 -56 22 -29 14 -55 24 -58 21 -3 -3 24 -19 61 -36 66 -30 103 -59 56 -45 -47
14 -129 70 -124 84 3 8 0 11 -9 8 -8 -3 -22 1 -33 8 -28 22 -1 18 73 -10z
m624 16 c0 -5 -8 -12 -17 -15 -11 -3 -8 -4 7 -3 27 2 50 -9 50 -23 0 -5 -6 -8
-12 -6 -7 3 -25 7 -40 10 -31 7 -38 32 -10 39 9 3 18 5 20 6 1 0 2 -3 2 -8z
m1118 -3 c17 -17 15 -25 -8 -24 -11 0 -20 4 -20 9 0 4 0 12 0 17 0 14 13 13
28 -2z m-1610 -19 c19 -7 21 -12 12 -28 -5 -11 -16 -23 -23 -27 -6 -4 -9 -4
-5 1 5 5 -1 14 -12 22 -11 8 -25 23 -31 34 -11 22 -6 22 59 -2z m594 4 c28
-25 23 -47 -9 -38 -28 7 -55 34 -47 47 8 13 37 9 56 -9z m876 -4 c67 -11 71
-14 57 -29 -10 -11 -45 -21 -98 -29 -45 -6 -84 -16 -85 -21 -2 -6 -8 -8 -13
-5 -4 3 -22 -1 -38 -10 -17 -8 -42 -15 -57 -15 -15 0 -35 -6 -43 -14 -22 -20
-71 -31 -71 -17 0 8 -6 7 -20 -1 -11 -7 -20 -21 -20 -30 0 -12 -8 -18 -24 -18
-13 0 -31 -3 -40 -6 -26 -10 -18 12 8 24 14 6 59 37 102 68 58 43 78 53 85 43
6 -11 13 -9 31 7 34 30 75 54 93 54 8 0 15 5 15 11 0 6 10 9 23 6 12 -3 55
-11 95 -18z m-1114 -5 c15 -38 -135 -61 -168 -25 -17 19 -16 20 41 26 32 3 65
8 73 9 34 8 48 5 54 -10z m296 -9 c6 -8 8 -20 4 -26 -5 -9 -11 -7 -21 6 -23
33 -9 51 17 20z m310 10 c0 -10 -92 -66 -102 -63 -7 3 13 18 43 36 58 34 59
34 59 27z m935 -15 c-10 -11 -23 -20 -28 -20 -6 0 -2 9 8 20 10 11 23 20 28
20 6 0 2 -9 -8 -20z m-2530 -15 l50 -23 -57 -1 c-55 -1 -58 0 -58 24 0 30 2
30 65 0z m700 -16 l27 -42 -28 7 c-40 10 -48 20 -40 50 3 14 8 26 10 26 2 0
16 -19 31 -41z m205 -90 c0 -6 -77 12 -111 26 -17 6 -34 -19 -24 -36 4 -5 -4
-5 -17 0 -13 5 -24 18 -27 32 -3 24 -3 24 18 5 31 -28 26 -6 -9 40 -16 21 -30
42 -30 46 0 4 17 8 38 10 34 3 43 -2 100 -57 34 -32 62 -62 62 -66z m-1040 88
c0 -5 -4 -5 -10 -2 -5 3 -10 14 -10 23 0 15 2 15 10 2 5 -8 10 -19 10 -23z
m1265 17 c50 -12 119 -74 101 -91 -4 -5 -115 49 -153 74 -25 17 -21 37 5 29
10 -3 31 -8 47 -12z m1085 12 c0 -2 -9 -6 -20 -9 -11 -3 -18 -1 -14 4 5 9 34
13 34 5z m217 -2 c23 -6 23 -6 -8 -45 -17 -22 -44 -46 -59 -54 -25 -13 -29
-12 -54 14 -31 32 -31 35 -8 66 13 20 26 24 62 25 25 0 55 -3 67 -6z m-1394
-28 c11 11 33 -61 31 -101 -1 -22 2 -46 8 -52 13 -16 3 -17 -23 -3 -11 6 -19
21 -19 36 0 19 -7 28 -30 36 -51 17 -68 77 -27 95 16 8 26 7 38 -3 9 -8 18
-11 22 -8z m327 14 c0 -5 -2 -10 -4 -10 -3 0 -8 5 -11 10 -3 6 -1 10 4 10 6 0
11 -4 11 -10z m907 -16 c2 -6 -19 -37 -48 -68 -41 -45 -62 -59 -105 -72 -30
-8 -60 -14 -68 -12 -23 5 107 152 141 160 39 9 76 5 80 -8z m198 -3 c-3 -6
-11 -11 -17 -11 -6 0 -6 6 2 15 14 17 26 13 15 -4z m-1220 -18 c6 -26 8 -26
19 -10 13 17 56 24 56 9 0 -22 -27 -40 -51 -36 -29 6 -71 64 -46 64 8 0 18
-12 22 -27z m-345 2 c0 -8 14 -22 31 -31 26 -13 30 -20 27 -45 -5 -33 5 -45
42 -51 35 -4 40 -38 6 -38 -16 0 -26 6 -26 15 0 8 -3 15 -6 15 -11 0 -33 -28
-27 -34 4 -3 1 -6 -5 -6 -7 0 -12 5 -12 10 0 6 -9 19 -20 30 -30 30 -27 52 5
40 35 -13 31 0 -15 53 -46 52 -48 57 -20 57 11 0 20 -7 20 -15z m275 -63 c-14
-2 -35 4 -47 12 -12 9 -30 16 -40 16 -10 0 -18 4 -18 9 0 5 -3 16 -6 24 -3 10
20 2 65 -22 59 -30 67 -37 46 -39z m235 68 c0 -5 -4 -10 -9 -10 -6 0 -13 5
-16 10 -3 6 1 10 9 10 9 0 16 -4 16 -10z m50 6 c0 -2 -8 -10 -17 -17 -16 -13
-17 -12 -4 4 13 16 21 21 21 13z m659 -13 c-8 -10 -33 -42 -58 -70 l-43 -53
-87 1 c-47 1 -113 4 -146 8 l-60 6 50 23 c30 14 51 19 53 12 6 -17 49 -11 54
8 7 24 84 48 103 32 16 -14 35 -5 35 15 0 8 15 17 38 20 20 4 42 8 47 10 23 8
27 4 14 -12z m-2229 -26 c7 -12 20 -33 28 -47 10 -16 -1 -9 -31 20 -26 24 -47
47 -47 51 0 15 37 -3 50 -24z m220 13 c6 -11 17 -20 25 -20 18 0 19 5 -4 -58
l-19 -52 58 0 c44 0 59 -4 64 -16 8 -20 6 -81 -3 -113 -6 -23 -7 -23 -44 18
-43 48 -97 131 -117 179 -11 27 -11 37 0 58 16 29 26 30 40 4z m-157 -46 c16
-31 26 -58 24 -61 -3 -2 -20 18 -39 44 -51 71 -51 73 -31 73 13 0 28 -18 46
-56z m55 44 c-2 -6 -13 -17 -24 -25 -19 -12 -22 -11 -32 12 -11 24 -10 25 24
25 23 0 34 -4 32 -12z m142 2 c0 -5 -4 -10 -9 -10 -6 0 -13 5 -16 10 -3 6 1
10 9 10 9 0 16 -4 16 -10z m55 0 c3 -5 -3 -10 -14 -10 -12 0 -21 5 -21 10 0 6
6 10 14 10 8 0 18 -4 21 -10z m450 0 c3 -5 1 -10 -4 -10 -6 0 -11 5 -11 10 0
6 2 10 4 10 3 0 8 -4 11 -10z m714 1 c12 -8 12 -12 2 -25 -14 -16 -42 -21 -54
-10 -9 9 11 44 26 44 7 0 18 -4 26 -9z m-1119 -61 c0 -33 -4 -60 -10 -60 -5 0
-10 10 -10 22 0 12 -8 30 -17 40 -17 19 -16 20 7 39 14 10 26 19 28 19 1 0 2
-27 2 -60z m151 50 c53 0 79 -4 79 -11 0 -7 -10 -38 -21 -70 -19 -52 -23 -57
-39 -46 -32 23 -135 141 -117 134 10 -4 54 -7 98 -7z m1908 -45 c-3 -3 -27 -8
-54 -12 l-48 -6 29 36 29 37 24 -25 c14 -13 23 -27 20 -30z m-1954 -35 c44
-44 75 -80 69 -80 -6 0 -23 13 -39 30 -18 19 -32 26 -39 21 -7 -6 -25 -2 -46
8 -31 14 -35 21 -38 59 -2 23 1 42 5 42 5 0 44 -36 88 -80z m201 23 c-3 -6
-30 -46 -61 -88 -31 -42 -55 -79 -52 -82 3 -2 31 29 62 71 32 42 60 76 64 76
5 0 60 -129 86 -201 5 -14 -4 -18 -53 -24 -53 -6 -64 -4 -98 18 -22 14 -49 33
-61 44 l-21 19 39 104 c21 57 39 105 39 107 0 2 14 -4 30 -14 17 -10 28 -23
26 -30z m109 29 c-3 -3 -11 0 -18 7 -9 10 -8 11 6 5 10 -3 15 -9 12 -12z m610
-2 c3 -5 -1 -10 -10 -10 -9 0 -13 5 -10 10 3 6 8 10 10 10 2 0 7 -4 10 -10z
m121 -5 c-11 -8 -24 -15 -30 -15 -5 0 -1 7 10 15 10 8 24 14 29 14 6 0 1 -6
-9 -14z m-1396 -9 c0 -8 -4 -17 -9 -20 -10 -7 -23 19 -14 28 11 11 23 6 23 -8z
m868 -24 c2 -7 -7 -12 -20 -13 -19 -1 -17 -3 9 -10 18 -5 38 -19 44 -30 10
-19 9 -20 -12 -14 -50 16 -89 36 -89 45 0 6 6 10 13 10 6 0 4 5 -5 11 -10 5
-18 16 -18 24 0 12 6 12 37 1 20 -7 39 -18 41 -24z m1592 10 c0 -16 -3 -31 -6
-35 -6 -6 -64 19 -64 28 0 5 52 34 63 35 4 0 7 -13 7 -28z m-2256 -23 l19 -34
-31 29 c-33 30 -42 51 -20 44 7 -3 22 -20 32 -39z m1096 -6 c-12 -8 -24 -12
-27 -9 -3 3 1 8 10 12 10 3 13 12 9 22 -5 15 -4 15 11 3 16 -13 16 -15 -3 -28z
m-534 12 c16 -12 16 -14 3 -15 -9 0 -22 7 -29 15 -16 19 0 19 26 0z m479 -4
c0 -29 -31 -36 -74 -16 -23 10 -41 22 -41 27 0 5 26 8 58 6 41 -2 57 -7 57
-17z m229 12 c4 -5 26 -15 49 -25 63 -25 22 -35 -53 -12 -61 18 -74 29 -42 37
28 8 38 7 46 0z m-1398 -35 c9 -18 32 -52 51 -75 48 -60 27 -54 -30 8 -29 31
-47 60 -47 75 0 32 6 30 26 -8z m627 -18 c58 -27 110 -50 115 -50 4 0 21 -13
36 -29 l27 -29 -33 -20 c-18 -11 -63 -27 -101 -35 -62 -14 -68 -14 -76 1 -10
18 -81 201 -81 208 0 7 5 5 113 -46z m1485 30 c-7 -10 -14 -17 -17 -15 -4 4
18 35 25 35 2 0 -1 -9 -8 -20z m52 0 c-46 -25 -63 -25 -25 0 17 11 37 20 45
20 8 -1 -1 -9 -20 -20z m-2260 -29 c14 -11 21 -23 17 -27 -4 -5 -24 9 -45 30
-36 37 -21 36 28 -3z m207 16 c4 -7 0 -8 -11 -4 -10 4 -22 7 -27 7 -5 0 -9 4
-9 9 0 12 38 2 47 -12z m1011 -18 c9 0 2 -7 -17 -15 -22 -10 -44 -13 -60 -8
-25 7 -25 8 9 14 l35 7 -32 2 c-20 0 -33 6 -33 14 0 25 13 27 47 7 19 -11 42
-20 51 -21z m250 10 c34 -11 62 -23 62 -25 0 -3 -23 -16 -51 -29 -50 -23 -52
-23 -91 -5 -39 17 -66 37 -57 42 26 17 65 38 70 38 3 0 33 -9 67 -21z m-1105
-58 c33 -32 57 -63 57 -75 0 -29 -11 -66 -19 -66 -13 1 -121 169 -121 190 0
27 9 22 83 -49z m1467 60 c19 -6 12 -9 -33 -12 -41 -3 -57 -1 -57 9 0 13 49
15 90 3z m-121 -17 c-14 -14 -20 -14 -50 0 l-34 14 50 1 c45 1 48 0 34 -15z
m278 9 c-20 -2 -52 -2 -70 0 -17 2 0 4 38 4 39 0 53 -2 32 -4z m-1549 -70 c-4
-18 -23 -17 -23 1 0 8 -11 27 -25 42 l-25 27 38 -28 c21 -15 37 -34 35 -42z
m1692 53 c0 -15 -117 -57 -138 -49 -18 7 22 50 52 56 49 10 86 7 86 -7z m-490
-6 c12 -8 10 -10 -10 -10 -14 0 -32 5 -40 10 -12 8 -10 10 10 10 14 0 32 -5
40 -10z m210 5 c0 -16 -26 -55 -34 -51 -6 2 -31 12 -56 22 l-45 19 45 6 c63 8
90 10 90 4z m125 -24 c-23 -22 -43 -30 -82 -34 -29 -3 -53 -4 -53 -1 0 3 7 18
15 34 15 29 18 30 83 30 l67 0 -30 -29z m-625 -12 c19 -17 27 -28 17 -25 -10
3 -30 6 -43 6 -19 0 -24 5 -24 25 0 32 7 31 50 -6z m-300 6 c7 -9 11 -18 8
-21 -9 -9 -59 16 -53 26 9 15 31 12 45 -5z m74 6 c3 -4 -6 -13 -19 -19 -20 -9
-25 -9 -25 2 0 24 32 37 44 17z m166 -1 c0 -13 -28 -25 -38 -16 -3 4 0 11 8
16 20 13 30 12 30 0z m325 1 c19 -7 18 -9 -5 -21 -14 -8 -43 -15 -65 -17 -22
-1 -52 -5 -67 -7 -45 -9 -32 7 25 30 57 23 81 27 112 15z m-1497 -32 c8 -12
11 -23 8 -27 -8 -8 -46 29 -46 44 0 18 23 8 38 -17z m1598 6 c-1 -27 -24 -32
-75 -18 -23 6 -23 6 10 24 49 26 67 24 65 -6z m-1346 -119 c0 -2 -24 2 -52 9
-52 12 -53 12 -50 46 7 86 9 87 57 15 25 -37 45 -68 45 -70z m895 112 c14 -6
25 -17 25 -25 0 -15 -17 -8 -55 21 -24 18 -7 21 30 4z m517 0 c26 -8 35 -14
26 -20 -13 -8 -68 -11 -68 -4 0 2 -3 11 -6 20 -7 19 -3 19 48 4z m-562 -13
c40 -21 38 -27 -7 -19 -49 9 -58 14 -42 25 18 11 15 11 49 -6z m-284 -11 c-5
-13 -1 -15 21 -11 28 6 28 6 -2 -8 -27 -12 -31 -11 -36 3 -7 20 -2 32 13 32 5
0 7 -7 4 -16z m424 6 c11 -7 5 -10 -22 -10 -21 0 -38 5 -38 10 0 13 40 13 60
0z m200 -15 c-9 -8 -24 -12 -38 -9 -35 10 -26 24 15 24 33 0 36 -2 23 -15z
m320 5 c0 -5 -17 -9 -37 -9 -38 1 -38 1 -8 9 43 11 45 11 45 0z m-415 -21 c5
-5 -13 -9 -48 -9 -61 0 -70 5 -34 20 24 10 66 4 82 -11z m205 12 c0 -9 -90
-24 -98 -17 -2 3 -1 9 3 15 7 13 95 15 95 2z m-1478 -21 c18 -11 28 -20 21
-20 -19 0 -63 22 -63 32 0 12 6 10 42 -12z m1328 0 c12 -8 11 -10 -7 -10 -13
0 -23 5 -23 10 0 13 11 13 30 0z m203 3 c-7 -2 -19 -2 -25 0 -7 3 -2 5 12 5
14 0 19 -2 13 -5z m-1214 -65 c-20 -8 -89 1 -89 11 0 4 7 16 15 28 l16 22 38
-27 c33 -23 36 -28 20 -34z m-189 -38 c0 -5 -2 -10 -4 -10 -3 0 -8 5 -11 10
-3 6 -1 10 4 10 6 0 11 -4 11 -10z"/>
<path d="M4649 6064 c-10 -13 -10 -17 1 -24 17 -10 30 -4 30 15 0 22 -16 26
-31 9z"/>
<path d="M4812 6043 c4 -21 33 -25 33 -3 0 8 -8 16 -18 18 -14 3 -18 -1 -15
-15z"/>
<path d="M4887 5953 c-4 -3 -7 -11 -7 -17 0 -6 5 -5 12 2 6 6 9 14 7 17 -3 3
-9 2 -12 -2z"/>
<path d="M4080 5730 c0 -5 5 -10 10 -10 6 0 10 5 10 10 0 6 -4 10 -10 10 -5 0
-10 -4 -10 -10z"/>
<path d="M5790 5451 c0 -26 17 -36 35 -21 18 15 8 40 -16 40 -12 0 -19 -7 -19
-19z"/>
<path d="M4764 5419 c-8 -14 11 -33 25 -25 16 10 13 36 -3 36 -8 0 -18 -5 -22
-11z"/>
<path d="M5130 5030 c-12 -7 -12 -12 -2 -22 9 -9 15 -9 24 0 16 16 -2 34 -22
22z"/>
<path d="M5222 5287 c-7 -8 -7 -18 -2 -27 8 -13 11 -13 25 1 14 13 14 17 2 27
-11 10 -17 9 -25 -1z"/>
<path d="M3560 4830 c0 -5 5 -10 10 -10 6 0 10 5 10 10 0 6 -4 10 -10 10 -5 0
-10 -4 -10 -10z"/>
<path d="M3812 4888 c2 -15 10 -23 23 -23 30 0 27 39 -3 43 -20 3 -23 0 -20
-20z"/>
<path d="M3715 4821 c-7 -12 12 -24 25 -16 11 7 4 25 -10 25 -5 0 -11 -4 -15
-9z"/>
<path d="M6620 4801 c0 -11 4 -22 9 -25 5 -3 6 -25 4 -50 -3 -24 0 -52 6 -62
8 -15 10 -8 11 37 0 30 5 60 11 66 6 6 8 20 4 32 -8 27 -45 28 -45 2z"/>
<path d="M4300 4455 c0 -8 7 -15 15 -15 8 0 15 7 15 15 0 8 -7 15 -15 15 -8 0
-15 -7 -15 -15z"/>
<path d="M3549 4294 c-11 -14 -10 -18 6 -30 16 -12 21 -12 32 -1 16 15 7 47
-12 47 -7 0 -19 -7 -26 -16z"/>
<path d="M3560 4481 c0 -25 19 -38 31 -20 12 19 6 33 -14 37 -11 2 -17 -3 -17
-17z"/>
<path d="M6334 4545 c-9 -23 15 -48 32 -34 19 15 18 35 -2 43 -22 8 -24 8 -30
-9z"/>
<path d="M5911 4687 c-9 -11 -8 -17 4 -27 12 -10 16 -9 21 5 9 23 -10 40 -25
22z"/>
<path d="M4719 4543 c-13 -16 -12 -17 4 -4 16 13 21 21 13 21 -2 0 -10 -8 -17
-17z"/>
<path d="M4025 4511 c-8 -15 3 -31 21 -31 9 0 14 7 12 17 -4 20 -24 28 -33 14z"/>
<path d="M5537 3833 c-12 -11 -8 -23 8 -23 8 0 15 7 15 15 0 16 -12 20 -23 8z"/>
<path d="M5285 3650 c-8 -13 3 -30 20 -30 14 0 27 24 18 34 -10 9 -31 7 -38
-4z"/>
<path d="M5100 3600 c0 -5 7 -10 16 -10 8 0 12 5 9 10 -3 6 -10 10 -16 10 -5
0 -9 -4 -9 -10z"/>
<path d="M6066 4273 c-11 -11 -6 -23 9 -23 8 0 15 4 15 9 0 13 -16 22 -24 14z"/>
<path d="M5905 3810 c3 -5 8 -10 11 -10 2 0 4 5 4 10 0 6 -5 10 -11 10 -5 0
-7 -4 -4 -10z"/>
<path d="M6526 4024 c-9 -22 -8 -24 9 -24 8 0 15 9 15 20 0 24 -15 27 -24 4z"/>
<path d="M6024 3795 c-4 -9 -2 -21 4 -27 15 -15 44 -1 40 19 -4 23 -36 29 -44
8z"/>
<path d="M4457 3674 c-8 -8 1 -24 14 -24 5 0 9 7 9 15 0 15 -12 20 -23 9z"/>
<path d="M4590 3440 c0 -13 7 -20 20 -20 13 0 20 7 20 20 0 13 -7 20 -20 20
-13 0 -20 -7 -20 -20z"/>
<path d="M5966 3212 c-3 -6 -1 -14 5 -17 15 -10 25 3 12 16 -7 7 -13 7 -17 1z"/>
<path d="M6116 6473 c-9 -9 -7 -33 3 -33 12 0 22 28 12 34 -5 3 -11 3 -15 -1z"/>
<path d="M6310 6445 c0 -10 7 -15 18 -13 21 4 19 22 -2 26 -10 2 -16 -3 -16
-13z"/>
<path d="M6727 6024 c-8 -8 3 -34 14 -34 11 0 12 27 0 34 -4 3 -11 3 -14 0z"/>
<path d="M3717 5884 c-8 -8 1 -24 14 -24 5 0 9 7 9 15 0 15 -12 20 -23 9z"/>
<path d="M6950 5706 c0 -9 5 -16 10 -16 6 0 10 4 10 9 0 6 -4 13 -10 16 -5 3
-10 -1 -10 -9z"/>
<path d="M3350 5630 c0 -5 7 -10 15 -10 8 0 15 5 15 10 0 6 -7 10 -15 10 -8 0
-15 -4 -15 -10z"/>
<path d="M6944 5619 c-8 -14 11 -33 25 -25 6 4 11 11 11 16 0 13 -29 20 -36 9z"/>
<path d="M3125 5611 c-7 -12 12 -24 25 -16 11 7 4 25 -10 25 -5 0 -11 -4 -15
-9z"/>
<path d="M3442 5579 c2 -6 8 -10 13 -10 5 0 11 4 13 10 2 6 -4 11 -13 11 -9 0
-15 -5 -13 -11z"/>
<path d="M7174 5545 c-4 -9 -2 -21 4 -27 15 -15 44 -1 40 19 -4 23 -36 29 -44
8z"/>
<path d="M6822 5428 c-7 -7 -12 -17 -12 -24 0 -17 31 -27 44 -14 13 13 293 14
301 0 11 -17 35 -11 35 9 0 26 -17 36 -35 21 -20 -17 -283 -10 -297 8 -13 15
-21 15 -36 0z"/>
<path d="M3145 4529 c-10 -15 3 -25 16 -12 7 7 7 13 1 17 -6 3 -14 1 -17 -5z"/>
<path d="M3136 4332 c-3 -6 -1 -14 5 -17 15 -10 25 3 12 16 -7 7 -13 7 -17 1z"/>
<path d="M2953 3628 c-2 -5 -2 -11 0 -15 7 -11 317 -4 317 7 0 11 -310 18
-317 8z"/>
<path d="M2929 3474 c-9 -11 -9 -18 -1 -26 14 -14 42 -3 42 16 0 20 -27 27
-41 10z"/>
<path d="M3056 3443 c-12 -12 -6 -33 9 -33 8 0 15 6 15 14 0 17 -14 28 -24 19z"/>
<path d="M2754 3225 c-4 -9 -2 -21 4 -27 15 -15 44 -1 40 19 -4 23 -36 29 -44
8z"/>
<path d="M6275 3029 c-10 -15 3 -25 16 -12 7 7 7 13 1 17 -6 3 -14 1 -17 -5z"/>
<path d="M3010 3021 c0 -6 5 -13 10 -16 6 -3 10 1 10 9 0 9 -4 16 -10 16 -5 0
-10 -4 -10 -9z"/>
<path d="M5440 2635 c0 -8 5 -15 10 -15 6 0 10 7 10 15 0 8 -4 15 -10 15 -5 0
-10 -7 -10 -15z"/>
<path d="M3187 2634 c-12 -12 -8 -42 6 -47 21 -8 39 8 35 29 -3 19 -29 30 -41
18z"/>
<path d="M4110 2591 c0 -15 6 -21 21 -21 14 0 19 5 17 17 -5 26 -38 29 -38 4z"/>
<path d="M5843 2499 c-16 -16 -5 -39 19 -39 14 0 19 6 16 22 -4 25 -19 33 -35
17z"/>
<path d="M3405 2460 c-8 -13 4 -32 16 -25 12 8 12 35 0 35 -6 0 -13 -4 -16
-10z"/>
<path d="M5419 2096 c-223 -62 -372 -266 -372 -511 0 -154 53 -286 153 -378
106 -98 210 -137 365 -137 105 0 181 17 263 59 90 47 86 39 51 114 -17 37 -32
67 -34 67 -2 0 -26 -16 -55 -35 -209 -141 -498 -46 -572 187 -25 81 -21 197
11 280 49 126 175 217 314 226 84 5 177 -15 246 -54 24 -13 48 -21 52 -17 4 5
21 34 39 66 l32 57 -64 30 c-34 16 -90 36 -123 45 -71 18 -240 19 -306 1z"/>
<path d="M7320 2091 c-81 -26 -118 -48 -177 -104 -110 -104 -163 -233 -163
-396 0 -162 46 -284 145 -384 91 -93 204 -137 350 -137 141 1 238 37 335 127
96 88 148 210 157 363 14 251 -120 464 -335 530 -84 26 -233 27 -312 1z m240
-132 c60 -13 144 -72 181 -126 92 -134 94 -353 3 -484 -112 -162 -349 -186
-496 -51 -135 125 -154 376 -42 535 79 111 211 159 354 126z"/>
<path d="M2296 2084 c-69 -22 -120 -57 -154 -106 -73 -106 -69 -233 9 -322 50
-56 98 -76 317 -130 100 -25 195 -52 211 -60 96 -50 94 -178 -3 -226 -39 -19
-61 -20 -309 -20 l-267 0 0 -70 0 -70 261 0 c299 0 371 10 442 63 97 73 129
225 72 342 -31 64 -80 105 -153 129 -26 9 -124 34 -219 56 -194 47 -231 65
-252 126 -13 37 -12 44 5 80 13 27 32 46 64 62 42 21 55 22 287 22 l243 0 0
70 0 70 -252 -1 c-195 0 -264 -4 -302 -15z"/>
<path d="M2960 2094 c0 -8 27 -52 242 -403 l169 -274 -2 -166 -1 -166 71 -3
71 -3 0 165 0 166 157 262 c86 145 178 299 204 343 l48 80 -82 3 c-72 3 -83 1
-97 -18 -8 -11 -77 -126 -154 -255 -76 -129 -142 -235 -146 -235 -4 0 -76 115
-160 255 l-153 255 -83 0 c-46 0 -84 -3 -84 -6z"/>
<path d="M4030 1590 l0 -511 73 3 c48 2 72 7 73 16 1 6 2 172 3 368 l1 356
164 -209 c90 -114 222 -280 292 -368 l129 -160 63 -3 62 -3 0 511 0 510 -75 0
-75 0 -2 -371 -3 -371 -290 371 -290 371 -62 0 -63 0 0 -510z"/>
<path d="M6060 1590 l0 -510 75 0 75 0 0 440 0 440 173 0 c94 0 189 -5 210
-11 116 -32 167 -170 106 -291 -41 -80 -115 -108 -291 -108 l-129 0 3 -67 3
-68 89 -5 90 -5 134 -162 133 -163 90 0 c52 0 89 4 87 9 -1 6 -65 84 -140 175
-76 91 -138 167 -138 170 0 2 13 7 30 11 16 4 57 27 91 51 50 37 66 57 92 112
29 60 32 77 32 157 0 76 -4 99 -26 145 -30 63 -76 113 -134 142 -81 42 -128
48 -397 48 l-258 0 0 -510z"/>
</g>
</svg>
