<svg width="784" height="139" viewBox="0 0 784 139" fill="none" xmlns="http://www.w3.org/2000/svg">
<path d="M443.897 1.86763C414.164 10.1343 394.297 37.3343 394.297 70.001C394.297 90.5343 401.364 108.134 414.697 120.401C428.831 133.468 442.697 138.668 463.364 138.668C477.364 138.668 487.497 136.401 498.431 130.801C510.431 124.534 509.897 125.601 505.231 115.601C502.964 110.668 500.964 106.668 500.697 106.668C500.431 106.668 497.231 108.801 493.364 111.334C465.497 130.134 426.964 117.468 417.097 86.401C413.764 75.601 414.297 60.1343 418.564 49.0676C425.097 32.2676 441.897 20.1343 460.431 18.9343C471.631 18.2676 484.031 20.9343 493.231 26.1343C496.431 27.8676 499.631 28.9343 500.164 28.401C500.697 27.7343 502.964 23.8676 505.364 19.601L509.631 12.001L501.097 8.00096C496.564 5.86763 489.097 3.20096 484.697 2.00096C475.231 -0.399041 452.697 -0.532374 443.897 1.86763Z" fill="black"/>
<path d="M697.364 2.53429C686.564 6.00096 681.631 8.93429 673.764 16.401C659.097 30.2676 652.031 47.4676 652.031 69.201C652.031 90.801 658.164 107.068 671.364 120.401C683.497 132.801 698.564 138.668 718.031 138.668C736.831 138.534 749.764 133.734 762.697 121.734C775.497 110.001 782.431 93.7343 783.631 73.3343C785.497 39.8676 767.631 11.4676 738.964 2.66763C727.764 -0.799041 707.897 -0.932374 697.364 2.53429ZM729.364 20.1343C737.364 21.8676 748.564 29.7343 753.497 36.9343C765.764 54.801 766.031 84.001 753.897 101.468C738.964 123.068 707.364 126.268 687.764 108.268C669.764 91.601 667.231 58.1343 682.164 36.9343C692.697 22.1343 710.297 15.7343 729.364 20.1343Z" fill="black"/>
<path d="M27.4973 3.46765C18.2973 6.40098 11.4973 11.0676 6.96399 17.601C-2.76935 31.7343 -2.23601 48.6676 8.16399 60.5343C14.8307 68.001 21.2307 70.6676 50.4307 77.8677C63.764 81.201 76.4307 84.801 78.564 85.8677C91.364 92.5343 91.0973 109.601 78.164 116.001C72.964 118.534 70.0307 118.668 36.964 118.668H1.36399V128.001V137.334H36.164C76.0307 137.334 85.6307 136.001 95.0973 128.934C108.031 119.201 112.297 98.9343 104.697 83.3343C100.564 74.801 94.0307 69.3343 84.2973 66.1343C80.8307 64.9343 67.764 61.601 55.0973 58.6676C29.2307 52.401 24.2973 50.001 21.4973 41.8676C19.764 36.9343 19.8973 36.001 22.164 31.201C23.8973 27.601 26.4307 25.0676 30.6973 22.9343C36.2973 20.1343 38.0307 20.001 68.964 20.001H101.364V10.6676V1.33431L67.764 1.46765C41.764 1.46765 32.564 2.00098 27.4973 3.46765Z" fill="black"/>
<path d="M116.031 2.1343C116.031 3.20096 119.631 9.06763 148.297 55.8676L170.831 92.401L170.564 114.534L170.431 136.668L179.897 137.068L189.364 137.468V115.468V93.3343L210.297 58.401C221.764 39.0676 234.031 18.5343 237.497 12.6676L243.897 2.00096L232.964 1.60096C223.364 1.20096 221.897 1.46763 220.031 4.00096C218.964 5.46763 209.764 20.801 199.497 38.001C189.364 55.201 180.564 69.3343 180.031 69.3343C179.497 69.3343 169.897 54.001 158.697 35.3343L138.297 1.3343H127.231C121.097 1.3343 116.031 1.7343 116.031 2.1343Z" fill="black"/>
<path d="M258.697 69.3343V137.468L268.431 137.068C274.831 136.801 278.031 136.134 278.164 134.934C278.297 134.134 278.431 112.001 278.564 85.8676L278.697 38.401L300.564 66.2676C312.564 81.4676 330.164 103.601 339.497 115.334L356.697 136.668L365.097 137.068L373.364 137.468V69.3343V1.3343H363.364H353.364L353.097 50.801L352.697 100.268L314.031 50.801L275.364 1.3343H267.097H258.697V69.3343Z" fill="black"/>
<path d="M529.364 69.3343V137.334H539.364H549.364V78.6677V20.001H572.431C584.964 20.001 597.631 20.6676 600.431 21.4676C615.897 25.7343 622.697 44.1343 614.564 60.2676C609.097 70.9343 599.231 74.6677 575.764 74.6677H558.564L558.964 83.601L559.364 92.6677L571.231 93.3343L583.231 94.001L601.097 115.601L618.831 137.334H630.831C637.764 137.334 642.697 136.801 642.431 136.134C642.297 135.334 633.764 124.934 623.764 112.801C613.631 100.668 605.364 90.5343 605.364 90.1343C605.364 89.8677 607.097 89.201 609.364 88.6677C611.497 88.1343 616.964 85.0677 621.497 81.8677C628.164 76.9343 630.297 74.2677 633.764 66.9343C637.631 58.9343 638.031 56.6676 638.031 46.001C638.031 35.8676 637.497 32.801 634.564 26.6676C630.564 18.2676 624.431 11.601 616.697 7.73431C605.897 2.13431 599.631 1.33431 563.764 1.33431H529.364V69.3343Z" fill="black"/>
</svg>
